<svg version="1" xmlns="http://www.w3.org/2000/svg" width="666.667" height="666.667" viewBox="0 0 500.000000 500.000000"><path d="M209.3 100.1c-.6.6-2.3 1.2-3.9 1.3-1.6.1-4.7 1.1-6.9 2.1s-4.6 1.9-5.3 2.1c-.7.1-2.5 1-4 2-4.5 3-12 6.3-12.8 5.6-.4-.4-.4-.1 0 .6.5.7-.1 1.5-1.6 2.1-4.7 1.9-20.6 13.4-28 20.4-1 1-2.4 1.5-3 1.1-.7-.4-.8-.3-.4.4s-2 3.9-5.8 7.8c-3.6 3.7-6.3 7-6.1 7.5.3.4-.4 1-1.4 1.4-1.1.3-2.3 1.5-2.6 2.6-.4 1-1.3 1.9-2.1 1.9s-1.4.6-1.4 1.2c0 .7-1.8 3.3-3.9 5.7-2.1 2.5-3.7 5-3.4 5.7.2.6-.3 1.4-1.1 1.7-.9.4-1.6 1.6-1.6 2.7s-.4 2-.9 2c-.8 0-1.2 1.1-2.9 7.5-3.3 12 7.3 30.1 21.8 37.5 5.4 2.7 15 6 17.7 6 2.1 0 1.5-2.5-1.1-5.1-2.6-2.5-6.4-4.6-18.4-10-7.8-3.5-9.1-4.9-9.7-10.7-.9-9.9 3.7-21 15.1-36.2 14.3-19 34.4-35.2 58-46.6 15.1-7.3 20.9-8.8 30.8-8.1 14.3 1 19.2 6.9 18.8 22.5-.3 9.8-.9 12.9-3.7 18.7-1.4 3-2.5 7-2.5 8.9 0 3.2-5 18.7-8.4 26.1-.8 1.6-2.4 5.2-3.6 8-1.2 2.7-2.8 6.3-3.6 7.8-.8 1.6-1.4 3.3-1.4 3.9 0 .5-.8 2.2-1.9 3.6-1 1.5-2.4 4.4-3 6.4-.7 2.1-1.6 3.8-2 3.8-.4 0-2.4 3.5-4.6 7.7-2.1 4.3-4.2 8-4.5 8.3-.7.5-2.1 5.4-2 6.6.1.3-.5 1.1-1.4 1.7-1.4 1.2-3.1 4-9.1 15.2-1.7 3.3-4.1 7.6-5.3 9.5-1.2 1.9-2.8 4.9-3.6 6.7-.8 1.7-2.2 4-3.1 5-2 2.2-12.6 19.3-12.8 20.8-.1.5-1.4 2.3-2.9 4-1.6 1.6-2.8 3.3-2.8 3.7 0 .7-3.2 5.4-12.2 17.8-3.2 4.3-3.8 5.2-6.5 8.4-.7.8-1.3 2-1.3 2.5 0 .6-.8 1.5-1.7 2-1 .6-1.3 1.1-.8 1.1.6 0-.3.9-1.8 1.9-1.6 1-2.7 2-2.5 2.2.2.3-1.5 2.3-3.6 4.7-2.1 2.3-4.6 5.1-5.4 6.3-4.3 6.1-36.8 36-33.7 30.9.5-.7-.8-.1-2.8 1.4-4 3.1-13.6 5-17.5 3.5-9.3-3.5-2.4-34.5 12.9-57 9.7-14.4 28.9-35.5 42.8-47.1 5-4.1 5.2-4.5 2.7-4.3-1.5.2-3.3.9-4.1 1.5-.8.6-1.9.9-2.4.6-.5-.4-1.3-.1-1.7.5-.5.8-.3.9.6.4.9-.5 1.1-.4.6.4-.4.6-1.2.9-1.7.6-1.2-.8-4 2-3.1 3 .4.5.1.5-.6.1-.9-.6-1-1.1-.3-2 .8-.9.7-1.3-.3-1.3-.8 0-1.7 1.4-2 3-.5 2.2-.9 2.7-1.8 1.9-.9-.7-1.9-.5-3.3.6-2.1 1.8-2.5 3.8-1.1 6.1.6.9.5 1.2-.1.8-.6-.4-2.3.6-3.8 2.1l-2.8 2.7.7-2.5c.7-2.4.6-2.4-.8-.6-.9 1.1-1.6 2.2-1.6 2.6 0 .3-1 1-2.2 1.5-1.2.6-2.4 1.6-2.6 2.4-.3.9 0 1.1.8.6.9-.6 1.1-.4.5.6-1.1 1.7-4.7 4.4-6 4.4-.5 0-1.9 2.3-3 5-1.4 3.5-2.5 4.9-3.6 4.7-1.1-.2-1.8.7-2.3 2.8-.3 1.7-1 2.9-1.4 2.6-.9-.5-7.4 9.5-7.1 11 .1.5.1 1.6 0 2.4-.1 1.3-.2 1.3-1.1 0-.9-1.3-1-1.3-1 0 0 .8-.7 2.8-1.5 4.4-.9 1.6-1.3 3.1-1.1 3.4.3.2-.2 1.1-1 1.9-.8.9-1.8 2.8-2.1 4.4-.3 1.6-.9 2.6-1.3 2.4-.5-.3-.6.5-.2 1.7.3 1.1.1 1.9-.4 1.6-.5-.3-1 1-1.1 2.9-.1 1.9-.7 4.1-1.4 4.9-1.9 2.3-1.8 11.9.1 16.2 4 8.8 12.4 15 20.7 15.3 6 .3 10.4-1 16.3-4.9 20.6-13.4 46.1-41 70.1-76l6.4-9.3 1.1 6.4c.7 3.5 2.4 8.7 3.7 11.4 3.2 6.2 11.3 14.4 13.5 13.6 1-.4 1.3-.2.8.5-.7 1.1-.3 1.3 3.2 1.6.7.1 1.6.7 2 1.3.7 1.2 8.8 4.4 15.2 6.1 5.1 1.4 25.5.7 40-1.4 6.3-.9 19.3-4.4 28-7.6 9-3.3 31.7-13.3 33.5-14.8.6-.5 6-3.9 12.1-7.5 13.2-7.9 10.9-6.3 23.8-16 23.4-17.5 29.2-22.4 43-36 25.3-25.2 35.3-40.6 41.1-63.4 5.2-20.3 3.5-37-5.2-52.1-4.6-8-11.3-16-16.8-20-9.1-6.8-26.4-14.3-33-14.5-1.1 0-3.5-.4-5.4-.9-8.1-2-24.2-2.8-26-1.3-1.1.9-1.3.9-.8 0 .5-.7 0-.9-1.3-.6-1.1.3-2 1-2 1.6 0 .5-.9.2-1.9-.7-1.2-1.1-2.1-1.3-2.5-.7-.5.7-1.5.7-3.2.1-1.7-.7-2.3-.7-1.9 0 .5.8-5.6 1.6-8.7 1.1-.5 0-.8.2-.8.7 0 .4-1.7.8-3.7.9-2.1.1-5.3.3-7 .5-1.8.3-4.2.5-5.4.6-1.1.1-1.8.6-1.4 1.1.3.5 0 1.3-.6 1.7-.8.4-.9.3-.5-.4s.1-1.2-.6-1.2c-1.7 0-8.7 1.9-11.3 3-3.9 1.6-6 2.4-7.5 2.5-2.2.3-6 1.6-10.5 3.5-16.9 7.5-23.2 10.4-24.3 11.3-1.7 1.4-1.9 1-2.6-5.6-1.5-12.9-6.9-24.5-14.7-31.5-6-5.4-23.3-9.4-26.6-6.1zm152.5 28.3c2 .2 6.2.8 9.2 1.1 14.9 1.8 33.9 10.6 43.4 20.2 19.2 19.4 18.7 51.3-1.4 80.8-1.5 2.2-2.9 4.4-3.1 5-.2.5-2.7 3.5-5.6 6.5-2.9 3.1-6.9 7.8-9 10.5-4.2 5.6-11.5 13.1-12.3 12.7-.3-.1-.5.2-.5.8 0 .5-2.1 3-4.7 5.4-2.7 2.5-4.8 4.3-4.8 4 0-.2-1.2.6-2.6 1.9-1.4 1.2-3.3 2.2-4.2 2.2-1 0-1.6.7-1.5 1.5.1.8-3.6 4.4-8.4 8-9.9 7.5-27.1 19.6-29.3 20.7-.8.4-3 1.7-4.9 3-1.9 1.3-4.8 2.3-6.5 2.3-2.1 0-2.7.3-1.7.9.9.6-1 2-6.9 5-4.5 2.2-9.2 4.1-10.4 4.2-1.9 0-1.9.1-.2.8 1.5.6 1.1.9-2 1.9-2 .6-4.1.9-4.6.6-.4-.3-1.1.2-1.4 1-.3.9-1.7 1.6-3.1 1.6-1.3 0-2.2.4-1.8.9.7 1.2-3.1 2.5-4.5 1.6-.5-.3-1-.1-1 .5s-.4.8-1 .5c-1-.6-5.2 1.7-4.7 2.6.1.2-.3-.1-.9-.8-1.5-1.7-2.5-1.6-1.8.1.4 1-.4 1.3-3 1.1-1.9-.1-3.3.2-3 .7.3.4-.7 1.3-2.1 1.8-1.4.5-2.3 1.4-2 2 .3.5-.1 1-1 1-1.2 0-1.5-.5-1.1-1.6.5-1.3.3-1.4-.7-.6-.7.6-3 1.3-5 1.5-2 .2-4.2.9-4.9 1.4-.8.6-2.2.7-3.3.2-2.9-1.1-3.5-1.1-2.9.5.4 1-.2 1.4-1.8 1.4-8.3-.2-13.9.6-14.8 2.1-.8 1.4-.9 1.4-1-.2 0-1.6-.7-1.9-6-2.1-1.4-.1-3.1-.5-3.8-.9-.7-.5-2-.6-3-.3-1 .4-3.7-.3-6-1.4-2.2-1.1-5-2.1-6.1-2.3-3.7-.6-13.8-8.5-15.7-12.4-2.2-4.5-2.5-17.3-.4-19.8.7-.8.8-1.5.3-1.5-.6 0-1.5 1-2.1 2.3-1.1 1.9-1.1 1.8-.6-1.3 1-5.6 2.3-8.2 3.6-7.4.6.4.8.3.5-.4-1-1.4.3-4.3 1.5-3.6.6.4.8.1.6-.7-.3-.8.3-2.5 1.2-3.9 1-1.4 2.9-4.8 4.3-7.6 1.5-2.9 4-7.3 5.7-9.8 1.7-2.5 5.1-8.5 7.6-13.3 2.5-4.9 5.6-10.8 7-13.3 12-21 27.4-55.6 34-76.5 5-15.5 7.4-17.6 32.2-28.2 18.3-7.9 39.6-13.6 55-14.9 4.2-.3 7.8-.7 7.9-.8.5-.4 17.4.2 21.1.8zM111.1 297.3c-1.6 1.6-2.5.1-1-1.6.8-.8 1.6-1.1 1.8-.5.2.5-.2 1.5-.8 2.1zM92 317.4c0 .2-.7.7-1.6 1-.8.3-1.2.2-.9-.4.6-1 2.5-1.4 2.5-.6z"/><path d="M285.5 186.2c-.3.7-.3 2.2-.1 3.3.1 1-.3 4-1.1 6.4-.7 2.5-1.5 5.5-1.7 6.6-1.4 7.5-25.3 62.9-31.6 73-2.2 3.6-2.2 3.7-.3 2.6 3.2-1.6 10.9-10.6 14.3-16.6 1.7-2.9 3.4-5.5 3.8-5.7.4-.2 1.7-2.3 2.9-4.8s5-9.7 8.4-16c8.8-16.4 12.9-27.4 15.3-40.9.5-2.8.1-3.7-2.5-6.2-3.3-3-6.6-3.8-7.4-1.7zM345 295c-.9.6-1 1-.3 1 .6 0 1.5-.5 1.8-1 .8-1.2.4-1.2-1.5 0zM430.8 253.7c-4.3 5-4.9 9.7-1.7 13.2 3.6 3.9 10.8 1.2 11-4.1.1-3.2-1-8-2.3-9.5-1.5-1.8-5.2-1.6-7 .4zM126.9 280.7c-1.3 1.6-1.2 1.7.4.4.9-.7 1.7-1.5 1.7-1.7 0-.8-.8-.3-2.1 1.3zM123 284.1c0 .5.5.7 1 .4.6-.3 1-.8 1-1.1 0-.2-.4-.4-1-.4-.5 0-1 .5-1 1.1zM92.6 312.6c-.5 1.4-.4 1.5.9.4 1.7-1.4 1.9-2 .6-2-.5 0-1.2.7-1.5 1.6z"/></svg>