<?xml version="1.0" standalone="no"?>
<!DOCTYPE svg PUBLIC "-//W3C//DTD SVG 20010904//EN"
 "http://www.w3.org/TR/2001/REC-SVG-20010904/DTD/svg10.dtd">
<svg version="1.0" xmlns="http://www.w3.org/2000/svg"
 width="100.000000pt" height="100.000000pt" viewBox="0 0 100.000000 100.000000"
 preserveAspectRatio="xMidYMid meet">
<metadata>
Created by potrace 1.14, written by Peter Selinger 2001-2017
</metadata>
<g transform="translate(0.000000,100.000000) scale(0.100000,-0.100000)"
fill="#000000" stroke="none">
<path d="M0 950 c0 -41 3 -50 18 -51 9 0 199 -1 422 -1 444 0 450 -1 450 -56
0 -47 -39 -181 -75 -257 -36 -75 -124 -198 -179 -249 -168 -155 -357 -228
-613 -235 -21 -1 -23 -6 -23 -52 l0 -51 103 5 c246 15 454 108 622 282 93 95
119 131 174 241 60 122 87 220 97 360 5 67 3 83 -11 97 -15 15 -61 17 -501 17
l-484 0 0 -50z"/>
<path d="M2 498 l3 -313 55 3 c101 5 142 11 214 34 233 72 418 243 496 457 24
66 27 81 16 102 l-12 24 -387 3 -387 2 2 -312z m663 190 c-26 -89 -157 -236
-266 -301 -65 -38 -181 -79 -255 -91 l-41 -6 0 203 c0 111 1 205 4 210 2 4
130 7 284 7 l280 0 -6 -22z"/>
</g>
</svg>
