<?xml version="1.0" standalone="no"?>
<!DOCTYPE svg PUBLIC "-//W3C//DTD SVG 20010904//EN"
 "http://www.w3.org/TR/2001/REC-SVG-20010904/DTD/svg10.dtd">
<svg id="Layer_1" data-name="Layer 1" xmlns="http://www.w3.org/2000/svg" viewBox="0 0 371.64 440.57"><defs><style>.cls-1{fill:#dbad6d;}.cls-2{fill:#5a4b44;}.cls-3{fill:#dae2e4;}.cls-4{fill:#594b45;}.cls-5{fill:#5d4d46;}.cls-6{fill:#dcae6d;}.cls-7{fill:#fbfafa;}.cls-8{fill:#60483f;}.cls-9{fill:#5d4d47;}.cls-10{fill:#655348;}.cls-11{fill:#5b4b41;}.cls-12{fill:#d9d0cb;}.cls-13{fill:#614d43;}.cls-14{fill:#5a4e48;}.cls-15{fill:#594e48;}.cls-16{fill:#dbe1e1;}.cls-17{fill:#5e5145;}.cls-18{fill:#594e4a;}.cls-19{fill:#5c4d48;}.cls-20{fill:#5f4a3f;}.cls-21{fill:#675c55;}.cls-22{fill:#d8ac72;}.cls-23{fill:#644d43;}.cls-24{fill:#dadad8;}.cls-25{fill:#5f4c43;}.cls-26{fill:#66544d;}.cls-27{fill:#5b4d49;}.cls-28{fill:#e0eae9;}.cls-29{fill:#62504b;}.cls-30{fill:#6a5d56;}.cls-31{fill:#635148;}.cls-32{fill:#c8b591;}.cls-33{fill:#68554e;}.cls-34{fill:#5e4f4b;}.cls-35{fill:#594b3f;}.cls-36{fill:#5b4f48;}.cls-37{fill:#daaa6d;}.cls-38{fill:#6b5237;}.cls-39{fill:#684d39;}.cls-40{fill:#c8b992;}.cls-41{fill:#dae7e7;}.cls-42{fill:#e1e9e2;}.cls-43{fill:#e6e7df;}.cls-44{fill:#e1e0dd;}.cls-45{fill:#645649;}.cls-46{fill:#e1e6dd;}.cls-47{fill:#66544a;}.cls-48{fill:#6a4d37;}.cls-49{fill:#60504e;}.cls-50{fill:#cebd97;}.cls-51{fill:#e0e1e0;}.cls-52{fill:#695034;}.cls-53{fill:#784e29;}.cls-54{fill:#ccc1a2;}.cls-55{fill:#cbbd97;}.cls-56{fill:#e6ebe0;}.cls-57{fill:#dad9d4;}.cls-58{fill:#e1e8e3;}.cls-59{fill:#e4e8e5;}.cls-60{fill:#655b54;}.cls-61{fill:#65514a;}.cls-62{fill:#62544e;}.cls-63{fill:#605a4d;}.cls-64{fill:#cbbb95;}.cls-65{fill:#6a4f34;}.cls-66{fill:#c5b890;}.cls-67{fill:#cec2a3;}.cls-68{fill:#ceaa79;}.cls-69{fill:#655552;}.cls-70{fill:#805d3e;}.cls-71{fill:#e6ecde;}.cls-72{fill:#614f3c;}.cls-73{fill:#d3bb89;}.cls-74{fill:#d0c1a3;}.cls-75{fill:#c7ae8a;}.cls-76{fill:#e8e2cf;}.cls-77{fill:#746c64;}.cls-78{fill:#ccae82;}.cls-79{fill:#d1c6a3;}.cls-80{fill:#cbaa87;}.cls-81{fill:#765c54;}.cls-82{fill:#695551;}.cls-83{fill:#605550;}.cls-84{fill:#edead6;}.cls-85{fill:#6c5138;}.cls-86{fill:#d1b47c;}.cls-87{fill:#c9ae88;}.cls-88{fill:#5c524b;}.cls-89{fill:#605650;}.cls-90{fill:#70655a;}.cls-91{fill:#cfb389;}.cls-92{fill:#ceb494;}.cls-93{fill:#62605b;}.cls-94{fill:#e9eadb;}.cls-95{fill:#d6b582;}.cls-96{fill:#d1be9e;}.cls-97{fill:#d8a670;}.cls-98{fill:#c1ba9e;}.cls-99{fill:#d5ceb6;}.cls-100{fill:#e3e7d8;}.cls-101{fill:#bdb79f;}.cls-102{fill:#726661;}.cls-103{fill:#ddf1f1;}.cls-104{fill:#63534e;}.cls-105{fill:#dfc2a7;}.cls-106{fill:#cabfa5;}.cls-107{fill:#d0bfa4;}.cls-108{fill:#5b564d;}.cls-109{fill:#c4b580;}.cls-110{fill:#847371;}.cls-111{fill:#665a52;}.cls-112{fill:#61534f;}.cls-113{fill:#d1be96;}.cls-114{fill:#69665f;}.cls-115{fill:#c1bb98;}.cls-116{fill:#dad6cd;}.cls-117{fill:#dde3d8;}.cls-118{fill:#e4e7d8;}.cls-119{fill:#5b5850;}.cls-120{fill:#855936;}.cls-121{fill:#dde0df;}.cls-122{fill:#d7c9a4;}.cls-123{fill:#e0d2c6;}.cls-124{fill:#c6b489;}.cls-125{fill:#e4e6dd;}.cls-126{fill:#d5d2bd;}.cls-127{fill:#c2bb9c;}.cls-128{fill:#595554;}.cls-129{fill:#5c5352;}.cls-130{fill:#784f35;}.cls-131{fill:#707370;}.cls-132{fill:#727168;}.cls-133{fill:#ccb585;}.cls-134{fill:#555453;}.cls-135{fill:#5c5048;}.cls-136{fill:#807471;}.cls-137{fill:#79726e;}.cls-138{fill:#63574f;}.cls-139{fill:#dfe6dc;}.cls-140{fill:#e4dfd9;}.cls-141{fill:#6e533a;}.cls-142{fill:#bcbdaa;}.cls-143{fill:#6e6660;}.cls-144{fill:#d6b984;}.cls-145{fill:#d6c0bd;}.cls-146{fill:#615750;}.cls-147{fill:#c4c3ac;}.cls-148{fill:#d4c59c;}.cls-149{fill:#6e5c58;}.cls-150{fill:#bfc5b1;}.cls-151{fill:#bab995;}.cls-152{fill:#d4b48a;}.cls-153{fill:#c7c8b3;}.cls-154{fill:#6e6a65;}.cls-155{fill:#b5b89a;}.cls-156{fill:#70524e;}.cls-157{fill:#dbf0f1;}.cls-158{fill:#dad8cf;}.cls-159{fill:#eadfcb;}.cls-160{fill:#564848;}.cls-161{fill:#7d6d6b;}.cls-162{fill:#846956;}.cls-163{fill:#dbbc8d;}.cls-164{fill:#7a7c79;}.cls-165{fill:#d3aa76;}.cls-166{fill:#6e462f;}.cls-167{fill:#7b5338;}.cls-168{fill:#fff;}.cls-169{fill:#e3ebec;}.cls-170{fill:#cea982;}.cls-171{fill:#70523b;}.cls-172{fill:#6e4521;}.cls-173{fill:#e2d9d6;}.cls-174{fill:#dda370;}.cls-175{fill:#74533e;}.cls-176{fill:#604440;}.cls-177{fill:#ddaf83;}.cls-178{fill:#d5a072;}.cls-179{fill:#8c6652;}.cls-180{fill:#79766f;}.cls-181{fill:#6a6461;}.cls-182{fill:#805a3c;}.cls-183{fill:#694c3a;}.cls-184{fill:#ddedef;}.cls-185{fill:#837469;}.cls-186{fill:#dbac6c;}.cls-187{fill:#fffefe;}.cls-188{fill:#d6bea4;}.cls-189{fill:#7a5c53;}.cls-190{fill:#644c47;}.cls-191{fill:#765d4e;}.cls-192{fill:#e4e0d4;}.cls-193{fill:#e1dbd6;}.cls-194{fill:#6f635d;}.cls-195{fill:#eddfd0;}.cls-196{fill:#b8a698;}.cls-197{fill:#d4a782;}.cls-198{fill:#dfd2c7;}.cls-199{fill:#6f564c;}.cls-200{fill:#73563f;}.cls-201{fill:#e4ceba;}.cls-202{fill:#dccfc5;}.cls-203{fill:#e8dfd7;}.cls-204{fill:#6b4e2b;}.cls-205{fill:#e7dcd2;}.cls-206{fill:#c9b390;}.cls-207{fill:#b79c93;}.cls-208{fill:#e2cdc4;}.cls-209{fill:#b59a8f;}.cls-210{fill:#6b4f37;}.cls-211{fill:#ccb687;}.cls-212{fill:#c5a07b;}.cls-213{fill:#d5b389;}.cls-214{fill:#635d55;}.cls-215{fill:#caafa0;}.cls-216{fill:#dcb698;}.cls-217{fill:#daad76;}.cls-218{fill:#765738;}.cls-219{fill:#816e6b;}.cls-220{fill:#d9d4c9;}.cls-221{fill:#bbbda7;}.cls-222{fill:#caad81;}.cls-223{fill:#fefefe;}.cls-224{fill:#dba86a;}.cls-225{fill:#4d443f;}.cls-226{fill:#665f59;}.cls-227{fill:#6e5c55;}.cls-228{fill:#816e6e;}.cls-229{fill:#bfb387;}.cls-230{fill:#675d5b;}.cls-231{fill:#d5aa5b;}.cls-232{fill:#d8bfb0;}.cls-233{fill:#dbbaaa;}.cls-234{fill:#e0cdb9;}.cls-235{fill:#b39a7c;}</style></defs><title>Artboard 1</title><path class="cls-1" d="M250.83,218.36c-2,.42-3.19,2.06-4.88,2.93-1.41-.09-2.09.58-2,2h0c-3.15-.51-3.63,2.32-5,4-3.3,2.17-6.52,4.48-9.92,6.5-5.81,3.44-12,5.34-18.86,3.83a34.93,34.93,0,0,0-8.91-.45c1.71-3-1-5.16-1.35-7.77a26.51,26.51,0,0,1,.57-4.4c.49-2-.26-3.6-2.73-3.65a1.62,1.62,0,0,1-.75.14,8.49,8.49,0,0,0,.76-4.1l3.42-.2.38-.11.39.07c.14,2.54,2,2.1,3.62,2.1,7.4,0,14.8,0,22.19,0a6.24,6.24,0,0,0,4.5-1.37c-.6-.78-1.1-1.56-.32-2.5,6.42-1.73,12.88-3.33,19-6.13a3.91,3.91,0,0,1,.07.9c-1.9,2.69-.78,5.3.22,7.9Z"/><path class="cls-2" d="M88.16,435.37c-6.29,5-13.66,5.63-21.23,5-2.76-.24-4.73-2.08-6.27-4.44a52.6,52.6,0,0,1-7.54-19.87c-2.12-11.94-4.6-23.8-5.54-35.94a263.56,263.56,0,0,1,.67-47.34,84.63,84.63,0,0,0,.53-11.46,54,54,0,0,1,3-20.08c6.89-19.57,12.84-39.51,23.14-57.71a10.5,10.5,0,0,1,1-1.74c7.44-8.79,7.51-19.47,7.75-30.1.07-3.33,0-6.66,0-10A8.8,8.8,0,0,1,85,197c1.22-2,3-2.49,4.43-.57,2,2.58,4.38,5.05,4.57,8.63l-.18,2.22a8,8,0,0,1-1,0c-1.22-3.35-2.61-6.59-6.13-9.6-1.34,5.59-.62,10.56-.69,15.46l-.33,2.18a4.91,4.91,0,0,0,0,5.87l.32,1.18c-.44,2.28-1,4.55-1.31,6.84a25.23,25.23,0,0,1-4.23,10.35,110.58,110.58,0,0,0-11.48,22c-4.39,11.74-8.77,23.5-12.94,35.32-1.7,4.8-3.5,9.56-4.25,14.69-1.52,10.57-.68,21.22-1.71,31.83-.93,9.56-.29,19.29-.27,28.94a79.22,79.22,0,0,0,.41,10.46c1.07,8,2.4,16,3.72,24,1.5,9.11,3,18.21,7.88,26.37,2.09,3.5,4.71,5.33,8.85,5.18a35.59,35.59,0,0,0,15.2-4C86.34,435.25,87.27,435.26,88.16,435.37Z"/><path class="cls-3" d="M194.54,122.43c2.9,1.93,3,4.43,1.43,7.23-.81,1.44-1.73,2.82-2.76,4.49h-7.93c-1.9,1.41-1.63,3.31-2.08,4.8-1.68,5.44-4,7.63-9.54,8.3-3.58.43-7.2.6-10.4,2.67a4.94,4.94,0,0,1-2.91.32c-5.12-.54-10.39.21-15.35-1.82-2.3-.94-3.94.91-5.62,1.83-2.62-1.27-.61-3.92-2.14-5.5-2.12-1.54-5.23.82-7.34-1.47,3.09.57,5-3.26,8.35-2.19l3.72,4.08c10.84.86,15.06-.81,16-7.88,2.78-1.46,2.44-4.89,4.35-7.39,2.13,2.38,3.39,5.52,7,5.21.84,0,1.74,0,1.51-1.24-.3-1.5-1.52-2.83-1-4.64,5-1.37,10.16-.47,15.08-1.7a16.92,16.92,0,0,0,1.61,1.86c3.61,3.18,7.29,1.75,8.28-3.19a1.25,1.25,0,0,0,0-1C195.2,124.26,194.74,123.35,194.54,122.43Z"/><path class="cls-4" d="M273.45,23.41c-6.86-4.29-14.38-6.71-22.27-8.3a121.38,121.38,0,0,1-25.73-7.69c-12.44-5.56-24.86-5.48-37.9-2a201.66,201.66,0,0,0-50,20.75,45,45,0,0,0-16.61,16.87c-1.06,1.87-2.18,3.76-2.11,6a10.34,10.34,0,0,0,.11,9.86c2.25,3.7,2,6.84,0,10.28l-1,1.06c0-.78-.08-1.57-.88-2l-.13-1v0c1.35-1.75,2.07-3.5.07-5.29-3.32-8.72-1.33-16.62,3.79-24a45.4,45.4,0,0,1,13.56-13A185.29,185.29,0,0,1,196.06,1c8-1.56,15.9-1.35,23.52,1.61a229.62,229.62,0,0,0,37.64,11,42.18,42.18,0,0,1,19.91,9.62Z"/><path class="cls-5" d="M141.92,214.28c-.1.63-.9,1-.62,1.77,3.43,0,6.84.06,10.25,0,2.91-.07,5.37.56,6.15,3.78s-.59,5.38-3.31,7.07c-5.66,3.5-12,4.81-18.43,5.39-6.1.54-10.75,2.92-14,8.06a129.51,129.51,0,0,0-11.06,21.13,82.92,82.92,0,0,1-4.33,9.49c-3.74,6.76-6.53,13.82-7.12,21.56-.77,10.15-4,19.82-5.7,29.78-1.52,1.58-.76,3.47-.7,5.26A23.47,23.47,0,0,1,93,334c-.07,2.29-.17,4.58-.19,6.88,0,1.28-.25,2.29-1.79,2.38-.53-12.13-.41-24.16,3.41-35.95a61.87,61.87,0,0,0,2.32-13.66,51.58,51.58,0,0,1,5.31-19.5c3-5.75,5.64-11.6,8.15-17.56a101.88,101.88,0,0,1,11.19-19.89c3.31-4.58,8.08-6.31,13.58-6.84,6.09-.58,12.11-1.75,17.47-4.93,2.19-1.3,3.25-3.32,1.55-6.35-8.88-.76-17.31,1.82-25.65,5.24-.29-3.58-.39-3.82,2.23-4.81A28.18,28.18,0,0,0,143,209.3l2.17,0-.37.94a1.18,1.18,0,0,0-.79,1.24.8.8,0,0,1-.46.75.88.88,0,0,0-.73.86l-.07.11A1.05,1.05,0,0,0,141.92,214.28Z"/><path class="cls-6" d="M304.89,293.29a12.13,12.13,0,0,1,2.78,7.3c.69,12.24,2.1,24.46,1.05,36.75l-1.36,1.23c-1.16-1,.36-2.88-1.13-3.76l-1.48.62.06-.06c-.46-2.7,1.08-4.9,2-7-1-1.6-2.85-.64-3.69-2.06-.5-1.86-.17-4.34-2.92-5.05-.31-1.74-1.38-2.29-3-1.92-.19-1.82-1.15-3.4-1.64-5.11-1.77-6.21-3.87-12.44-1.65-19,1.85-.12,3.39-.66,2.48-2.94-.52-1.29.37-2.16.45-3.24,3.5-3.63,4.44.48,6.21,2.06C302.81,292.55,303.48,293.24,304.89,293.29Z"/><path class="cls-7" d="M276.11,67.23a63.57,63.57,0,0,1,2.72,17.24,23.29,23.29,0,0,0,2.15,10,2.61,2.61,0,0,1-.13.74c-1.2,1-2.83,1.73-1.81,4,1.53-.5,2.24-1.76,3.15-2.79a10.49,10.49,0,0,1,5.45,0,13.21,13.21,0,0,1,6,5.87c2.39,4.11,2,9.08,4.13,13.29-.32,1.54.18,3.23-.83,4.65l-3.93-.11c-.39-1.46-.71-3-2.15-3.85a1,1,0,0,0-.77,0,2.9,2.9,0,0,0-2.46,0c-1.52.21-2.64.86-2.73,2.59l-1.16,1.51c-1.05,1.84-.93,3.83-.7,5.82-1.87,1.37-.36,5.13-3.86,5.53-2.15-2.65-.35-5.8-1.31-8.49.17-12.68.54-25.35-.12-38a7.79,7.79,0,0,0-.76-5.17c-.08-1.26-.16-2.52-.25-3.78a3.53,3.53,0,0,0-.71-3.38c-.07-.55-.15-1.09-.22-1.64l-.1-3.85Z"/><path class="cls-8" d="M370.79,291.25c1.89,14.34.24,28.57-1.4,42.79-2.12,18.34-5.85,36.44-8.13,54.76-.74,5.93-5.66,42-6.05,48-.08,1.26.52,2.68-1,3.79-2.57-.14-2.33-2.19-2.37-3.92-.16-7.68,5.32-45.37,6.43-52.94,3.12-21.22,7.29-42.3,9.22-63.68a255.84,255.84,0,0,0,1.28-27.41c.32-1.15-.25-2.42.45-3.56C370.28,289.49,369.73,290.94,370.79,291.25Z"/><path class="cls-9" d="M145.2,182.21a19.13,19.13,0,0,1-1.09-1.8c-1-1.65-2.28-3.09-3.29-4.72a5.56,5.56,0,0,1-.93-2.47c-.06-.94.29-1.86.23-2.8a4.16,4.16,0,0,0-1-2.64,3.73,3.73,0,0,0-1.74-1c-12-3.27-19.22-12.15-24.75-22.35a65.5,65.5,0,0,1-7.79-33.52A18.83,18.83,0,0,1,107,102.8c1.67-3.3,4.07-5.17,8-4.48.63,1.15,2,1.25,2.88,2,0,.71,0,1.42,0,2.13-5.51-2.78-6.86-2.27-9.07,3.41-1,.94-.95,2.15-.79,3.38a.94.94,0,0,0-.14,1c-1.23,9.58,1.39,18.44,5,27.1a8.39,8.39,0,0,0,2.07,5,45.09,45.09,0,0,0,18.86,20.36c2.08,1.18,4.68,3.39,7.23-.54.31,7.2,4.8,12.51,6,18.94a1.21,1.21,0,0,0,.67,1.23,1,1,0,0,1,.32.82c-.05.75-.29,2.34-1.28,2.41a.25.25,0,0,1,0-.21,1.91,1.91,0,0,0,0-1.06,1.12,1.12,0,0,0-.69-.76.34.34,0,0,1-.18-.09.34.34,0,0,1-.05-.14A2.44,2.44,0,0,0,145.2,182.21Z"/><path class="cls-10" d="M135,331.46c-1.65,7.94-3.25,15.9-4.94,23.83-4.09,19.15-5,38.56-5.05,58,0,1.65-.14,3.31-.21,5-1.21.78-.84,2-.81,3.07l0,0-2-.08c-.16-.7-.33-1.39-.49-2.09.58-2.12.27-4.3.34-6.45.37-10.1-.25-20.21.85-30.34.91-8.4,2.76-16.64,3.43-25.06a3.68,3.68,0,0,0,.68-3.07,31.46,31.46,0,0,0,1.88-6.93l3.24-16c1.38-1,.56-3.07,2-4C135.55,328.34,134.61,330.07,135,331.46Z"/><path class="cls-11" d="M273.45,23.41l3.68-.22C281.2,25.53,284.5,28.85,288,32a149,149,0,0,0,15.81,12.18c7.39,5,9.11,9.83,6.58,18.42a45.27,45.27,0,0,1-2.53,7,39.77,39.77,0,0,0-3.89,13.83c-.25,2.65-1,5.21-3.56,6.59-1.35-.37-1.86-1.27-1.46-2.32,2.87-7.58,3.19-16,7.41-23.13a15.1,15.1,0,0,0,1.41-4.76c1-5.18,0-9.49-4.91-12.47C292,40.68,283,31.63,273.45,23.41Z"/><path class="cls-12" d="M248.8,132.34c-.3,0-.61,0-.91-.05v-.8c5-.28,10.06-.05,15-1.39a50.32,50.32,0,0,0,7.08-1.59c2.92-.79,3.62-2.44,2.71-5.1l2.24.22v-7.38L275,87.09c.25.15.5.29.74.45q.18,13.88.34,27.76l-.33,26c-1.8,0-3.6-.07-5.39,0s-3.74.08-4.56-1.25c-1.68-2.73-4.4-3.51-6.93-4.75,1.27-.19,2.63.33,3.84-.44-2.74-2.07-2.74-2.07-3.86.43l-2.18.05c-1-.89-1-2.61-2.61-3Z"/><path class="cls-13" d="M194.54,122.43c.2.92.66,1.83.23,2.8l-3.15-.08c.17-.8.28-1.58-.9-1.65-6.37-1.13-12.77-1.91-19.46-.87-.34,1.11-1.67,1.86-1.53,3.43,5.33.84,10.52-.67,15.78-1,1.45.4.69,1.28.44,2l-1.07.43c-4.92,1.23-10.1.33-15.08,1.7-.51,1.81.71,3.14,1,4.64.23,1.21-.67,1.25-1.51,1.24l-3-5.68h-6.15l-3.24-.16c-.74-.14-1.6.29-2.24-.56,1.6-1.11,3.82.41,5.23-1.26,1.13-.5,2,.66,3-.38-.57-2.93-1.82-4.17-4.5-3.7a57.82,57.82,0,0,1-12.25,1c-.7-.69-3.5,1.06-2.23-1.92,2-.67,4.29.2,6.18-1.12,8.22-.59,16.44-1.15,24.65-1.78C181.54,119.06,188.22,119.42,194.54,122.43Zm-26.78,1c-1.24-.53-2.16-.88-2.7.34a1,1,0,0,0,.32.84C166.56,125.45,167.06,124.54,167.76,123.44Z"/><path class="cls-14" d="M202.21,252.09c5,1.28,9.7,3.28,14.81,4.17,17.14,3,32.46-2.29,47.24-10.11a118.75,118.75,0,0,0,19.12-12.76c1.75,1.26.84,2.05.25,2.78-1.7,2.11-4,3.45-6.23,4.93-13,8.78-26.87,15.93-42.69,18-11.71,1.5-23.18.11-33.93-5.28l-1.17-.38-.37.09-.31-.21c-.44-1-1.23-1.07-2.14-.88v.06c.12-1,.37-1.95,1.47-2.35a.57.57,0,0,1,.63.24,1.23,1.23,0,0,0,1.29.77.84.84,0,0,1,.77.31A1.14,1.14,0,0,0,202.21,252.09Z"/><path class="cls-15" d="M370.79,291.25c-1.06-.31-.51-1.76-1.54-2.19-.7,1.14-.13,2.41-.45,3.56-1.47-5.43-1.41-11.1-2.79-16.58-5.26-20.81-17.24-35.36-37.94-42.24-4.66-1.55-9.49-2.87-13.21-6.42l.19-2.58a43,43,0,0,0,13.36,6.46c22.56,7.23,35.14,23.33,40.45,45.77C370,281.68,371.17,286.37,370.79,291.25Z"/><path class="cls-16" d="M258.9,135.29c2.53,1.24,5.25,2,6.93,4.75.82,1.33,2.87,1.32,4.56,1.25s3.59,0,5.39,0l.26,1.93c-.43.28-.87.68-.1.94a1.43,1.43,0,0,0,1.94-1,2.44,2.44,0,0,0,.06-.93l1-1c3-.91,4.2-3.71,6-5.89a5.47,5.47,0,0,1,1-.12c4.41,1,4.66-3,6.32-5.38.73,1.14,1.84.13,2.76.57v4.91l0,0c-1.47-.06-3.05-.3-3.1,1.93-3.66.75-11.62,6.32-13.24,9-7.78,1.44-15.11.94-22.47-3.08-.3-1.18-.79-3.07-1.27-5,2.69.32,1.88-1.51,1.78-2.91l2.18-.05Z"/><path class="cls-17" d="M307.8,349.23c2.87,23.82,3.29,47.75,3,71.7,0,2.07.51,18.06-1.68,19.64-2.21-.86-1.39-2.79-1.4-4.29-.09-10.15.1-33.94.09-44.09a381.05,381.05,0,0,0-2.16-38.8c1.86-1,1-2.88,1.32-4.37A1.26,1.26,0,0,0,307.8,349.23Z"/><path class="cls-18" d="M315.05,224.8l-.19,2.58c-1.43-1.38-2.24-.43-2.87.82-2.1,4.14-4.14,8.3-6.23,12.45-4,7.87-7.56,15.88-9.32,24.58-.26,1.3-.39,2.62-.58,3.94-1.71,5-1.72,10.35-3,15.4-1.18,4.53.25,9.6-2.91,13.68-2-3.38-.59-6.85-.08-10.2,1.87-12.4,3.38-24.91,8.17-36.66a232.31,232.31,0,0,1,11.22-22.64C310.39,226.57,311.71,224,315.05,224.8Z"/><path class="cls-19" d="M247.78,207.22c8.89-4.49,16.18-11.08,22.66-18.42,6.16-7,9.2-15.61,10.38-24.85.38-3,.73-5.92,1.11-8.88.11-.87.45-1.59,2.23-1.63-.37,7.9-1.24,15.54-3.7,23.13-4.46,13.73-15.08,22.08-25.61,30.61l-2.94,1C250.81,206.68,249.16,207.51,247.78,207.22Z"/><path class="cls-20" d="M159.75,203.34a.86.86,0,0,1-.8-.28,2,2,0,0,1,1.12-2l-.13.22.11-.22c.13,1,.87,1.27,1.75,1.28l.06,0a1.18,1.18,0,0,0,1.17.84c9.07,7.86,19.91,10.12,31.51,10a103.83,103.83,0,0,1,15,.62c5.16.69,10.27-.6,15.41-.49v1.91c-9.1,0-18.2,0-27.3,0-1.56,0-3.34-.67-4.66.86-1.28.7,0,1.45,0,2.17v2.93c-2.38-4.29-6.22-5.69-10.91-6-8.51-.6-15.38-4.72-21.16-10.81A1.05,1.05,0,0,0,159.75,203.34Z"/><path class="cls-21" d="M135,331.46c-.38-1.39.56-3.12-1.07-4.19.61-2.32,1.21-4.65,1.82-7,3.5-8.05,7.28-16,12.4-23.16a92.33,92.33,0,0,0,13.52-26.93,3.21,3.21,0,0,1,1.17-2.11c.59,1.39,1.4.23,2.12.19a102.73,102.73,0,0,1-15.66,31.81C142.49,309.61,138.39,320.38,135,331.46Z"/><path class="cls-22" d="M128.85,87.24l-1,1-.77-1a179.25,179.25,0,0,0-1.85-26,1.82,1.82,0,0,0,1.8-1c5,1.3,9.76,3.44,14.9,4.25-1.77,3.69-5.43,2.43-9,3.17C131.52,74.08,130.19,80.66,128.85,87.24Z"/><path class="cls-23" d="M262.85,130.1c-4.9,1.34-10,1.11-15,1.39l-3,0-1.07-.4c-.7-1.19-3.17-.41-2.92-2.64.88-.3,2,.25,2.64-.74-.48-2.19-1.94-2.4-3.8-2a28.88,28.88,0,0,1-7.93.51c-1.51-1.64-3.56-.45-5.28-1a3.7,3.7,0,0,0,.3-.78c8.7-.49,17.41-.83,26-2.06l1.05-.07,3-.06,8,.28c1.19,1.34,2.72.78,4.15.75l.42-.07.4.17c-1.06,1.61-2.8.64-4.16,1.09-3.43.21-6.91-.28-10.45.6,0,1.48-1.72,2.92.36,4.16,1.46.07,3,.64,4.25-.67l2-.13Zm-10.08-4.56c-3.72-.4-3.72-.4-6.74.59C249.63,129.29,250.44,129.22,252.77,125.54Z"/><path class="cls-24" d="M158,137.29c-.93,7.07-5.15,8.74-16,7.88l-3.72-4.08c-3.37-1.07-5.26,2.76-8.35,2.19l-1-.08,1-1.87,0,0h1c.34.8.66.72,1,0,.89-.41,1-1.2,1-2h0c2.64,0,3.09-1.74,2.62-4.19,3.71,1.4,6.25-4.32,9.77-.65-.49,1.6-2.72.16-3,2.05l1.22,4.51c4.37.49,8.61,1.41,10-4.42.23-1,1.43-1.26,2.48-1.27l1.82,1.72Z"/><path class="cls-25" d="M139.91,189.24c3.88.89,2.59,3.35,1.14,5.08-1.7,2-3.56,3.88-5.21,5.93a5.17,5.17,0,0,0-2.91,3c-.38.08-1.2-.07-.46.67.15.14.51-.31.43-.71,2.39.34,4.43-1.53,6.85-1.06.48.21,1.17,0,1.45.78-.76.42-1.85.27-2.33,1.21-8.06,2.69-15.43,6.5-21.27,12.91-1.27,1.39-2.32,3.34-4.67,3.3-.29-.65-.57-1.29-.85-1.94q9.33-9.47,19.5-18a40.37,40.37,0,0,0,7.19-7.41c.93-1.32.13-1.61-.85-2C137.93,189.71,138.9,189.45,139.91,189.24Z"/><path class="cls-26" d="M116.8,317.09c1.8-8.71,3.4-17.47,5.45-26.12,2-8.46,7-15.54,11.59-22.73.93.37,1,1.17,1.06,2-.29,1.7-1.41,3-2.22,4.41-4.7,8.22-8.37,16.77-9.93,26.24-.91,5.51-1.67,11.14-4,16.34C118.08,317.42,117.34,318.5,116.8,317.09Z"/><path class="cls-27" d="M141,61.58c17.34,1.85,34-1.33,50.25-7,1.86-.65,3.64-1.7,5.74-1.29-1.86,3-5.59,3-8.05,5-2.83.1-5.34,1.45-8,2.21-6,1.71-12.18,2-18.13,3.69h0c-6.63.11-13.26.77-19.9,0Z"/><path class="cls-28" d="M289.91,298.25c3.16-4.08,1.73-9.15,2.91-13.68,1.32-5.05,1.33-10.4,3-15.4.54,5.42-1.94,11.09,2.06,16.45,3.61-.44,4.93,3.06,6.82,5.86l-1.73-.37c-1.77-1.58-2.71-5.69-6.21-2.06-2.95,1.12-3,3.62-2.93,6.18-2.22,6.58-.12,12.81,1.65,19,.49,1.71,1.45,3.29,1.64,5.11l1,4.83c-3.45-5.93-6.32-12.12-6.12-19.14C292.08,302.37,290.81,300.44,289.91,298.25Z"/><path class="cls-29" d="M297,120.26c1-1.42.51-3.11.83-4.65.13-.87.07-1.82,1-2.32,3.17,11.34-.4,21.89-3.76,32.48a17,17,0,0,1-4.55,7c-1.38,1.34-2.81,2.88-5.62,2.32,2.47-3.35,6.25-5.5,7.15-9.62a24,24,0,0,0,3-10.16l0,0C296.84,130.48,297.87,125.5,297,120.26Z"/><path class="cls-30" d="M134.9,270.25c0-.84-.13-1.64-1.06-2,7.55-13.36,19.15-21.42,33.66-25.62a13.71,13.71,0,0,1,6.37-.39l0,1c-1.36.21-3-.53-4,1a70.12,70.12,0,0,0-11.62,4.28C148.21,253.33,141,261.18,134.9,270.25Z"/><path class="cls-31" d="M254.79,85.91a3.36,3.36,0,0,1-3.11,4c-5.23.43-10.48,1.94-15.77.44-1.44-.41-3.14-.69-3.09-2.64s1.77-2.36,3.22-2.47c5.14-.38,10.29-.61,15.45-.84A3.52,3.52,0,0,1,254.79,85.91Zm-18,1.79c3.06,1.31,6.21.9,10.49,0A33.94,33.94,0,0,0,236.82,87.7Zm13.82.08-.3-.19,0,.31Z"/><path class="cls-32" d="M264.94,367.23c-1.15-7,4.48-9.73,8.49-13.81,2.67,2.61,0,3.9-1.16,4.75a12.13,12.13,0,0,0-4.95,6.69c.8,2.28,2.82,3.6,4.47,5.17,4.63,4.4,3.63,7,.24,11.2a9.83,9.83,0,0,1-7.2,4l0-2,0-.07c1.1-.67,2.25-1.28,3.3-2,4.64-3.34,4.86-6.35.76-10.31C267.62,369.59,266.26,368.43,264.94,367.23Z"/><path class="cls-33" d="M104.64,361.21c3.21-12,4.82-24.33,9.3-36,1-.45,1-1.27.87-2.17a.92.92,0,0,1,.17-.8,1.83,1.83,0,0,0,.89-2.1,1.06,1.06,0,0,1,.14-.85c1.27.72.71,2,.94,3.05a1.29,1.29,0,0,1-.17.88,1.87,1.87,0,0,0-.79,2.19q-4.81,17.16-7.95,34.71l-1.11,1.14-.34-1.43Z"/><path class="cls-34" d="M177.87,91.3a1.46,1.46,0,0,1-1.31,1.3c-6.76.63-13.55,1.47-20.21-.72a5.82,5.82,0,0,1-1.52-1.14c-.43-2.59,1.4-3.27,3.14-3.85a31.48,31.48,0,0,1,14.77-1.39c2.31.35,5.75.61,5,4.7-6.44-3.43-14.89-3.53-20.15-.25a20.93,20.93,0,0,0,8.77,1.32C170.22,91.22,174,91.29,177.87,91.3Z"/><path class="cls-35" d="M276.11,115.3q-.17-13.89-.34-27.76c0-2.45,1-5-.8-7.27l-.17-2.8c0-.75.08-1.49.11-2.24-.06-1.06.27-2.26-.94-3l-.21-1.77a1.89,1.89,0,0,0-.61-2.19l-.36-2.8c.47-1.45,1.25-.44,1.93-.24.09.61.17,1.22.25,1.83.07,1.43-.62,3,.86,4.15.07.55.15,1.09.22,1.64-.15,1.21-.51,2.46.71,3.38.09,1.26.17,2.52.25,3.78,0,1.76-.81,3.64.76,5.17.66,12.68.29,25.35.12,38C275.56,121,278.15,117.62,276.11,115.3Z"/><path class="cls-36" d="M265.09,227.52c13-1,25.74-1.67,38.57-3.33-.52,2.43-2.22,2.91-3.8,3.09-10.69,1.23-21.41,2.32-32.2,2.11A2.41,2.41,0,0,1,265.09,227.52Z"/><path class="cls-37" d="M120.72,137.39l-1.64-.22-1.18-1.87c-.25-2.71-.44-5.46-4-6a5.87,5.87,0,0,1-1-4.09l0-1.77a.65.65,0,0,1,.51-.32l4.37.19h0c0,.86.15,1.67,1.18,1.91,3,3.63,3.61,8.61,7,12Z"/><path class="cls-38" d="M298.12,324.19l-1-4.83c1.65-.37,2.72.18,3,1.92,1.32,4.76,2.22,9.67,4.62,14.09l-.06.06c0,4.66,2.46,8.9,2.25,13.59-.33,1.49.54,3.34-1.32,4.37-2.45-8.08-3.15-16.58-5.88-24.59C299.28,327.25,299.15,325.55,298.12,324.19Z"/><path class="cls-39" d="M104.64,361.21l2-1.34.34,1.43c-1,5.36-3.86,10-5.73,15-.87,2.26-2.36,4.3-2.4,6.86-1.16,2.36-1.39,5.1-3,7.26-1.29,0-2.09-.49-2-1.93l1.08-3.2,0,0c1.27-.66,1-1.84,1-2.93l0-.09a1.19,1.19,0,0,0,.84-1.27C98.58,374.06,102,367.8,104.64,361.21Z"/><path class="cls-40" d="M175,295.39c-2.08,5.05-3.34,9.66-5.5,13.95s-1.65,9.27-3.85,14.16c-3.38-4.11-1.33-7.82-.22-11.05C170.93,296.45,171.12,296.36,175,295.39Z"/><path class="cls-41" d="M130.12,108.25c1.93,4.22,2,8.85,2.73,13.3.24,1.4.23,2.67,2.06,2.72.35,1.54-1.33,2.25-1.4,3.93-.1,2.47-3.29,1.8-5,2.88-1,.64-1.57-.74-1.65-1.82q0-6.46,0-12.95c1.55,1.51,1.4,4.8,4.92,4.73C130.86,116.65,129.92,112.51,130.12,108.25Z"/><path class="cls-42" d="M232.86,43.19c1,1.54,3,1.17,4.3,2.22l-2.32,2.08c-.55-.06-.79.31-1,.74h0a1.11,1.11,0,0,0-1.15.93l0,0c-3.84,2.17-7.68,4.32-11.51,6.51-1,.55-2.16,1-2,2.49-1.82-1.37-3.61.24-5.42.06l2.12-2a1,1,0,0,0,1.06-.79l1.95-1.31a1,1,0,0,0,1-.83h0a1.11,1.11,0,0,0,1.15-.9Z"/><path class="cls-43" d="M162.8,64.16c5.95-1.65,12.17-2,18.13-3.69,2.64-.76,5.15-2.11,8-2.21,1,.14,2.21-.33,2.93.84a34.87,34.87,0,0,1-22,6.11C167.76,63.24,165.11,64.87,162.8,64.16Z"/><path class="cls-44" d="M126.9,129.26c.08,1.08.65,2.46,1.65,1.82,1.67-1.08,4.86-.41,5-2.88.07-1.68,1.75-2.39,1.4-3.93l5.38-3.91c2.91,1.56,6.41.53,9.77,1-1.89,1.32-4.17.45-6.18,1.12-6.45,1.11-6.74,1.36-6.65,5.64-1.36,1.47-3.34,2.32-4.31,4.19-.43.95-1.22,1.79-1,3-2.81,1.76-4.63.28-5.82-2.08-.94-1.85-2.16-3.64-2.35-5.81Z"/><path class="cls-45" d="M95.9,382.33c0,1.09.28,2.27-1,2.93l.22.24-.24-.22-1.08,3.2c-1.72-2-.49-4.46-1-6.66a96,96,0,0,1-1.78-26.52c1.59.87.07,3.19,1.86,4,1.56,6.72.43,13.7,2,20.42C95.17,380.61,94.93,381.68,95.9,382.33Z"/><path class="cls-43" d="M142.88,64.17c6.64.75,13.27.09,19.9,0l1.6,1.73c-.92.5-1.77,1.55-2.83.92-5.26-3.13-10.94-.78-16.39-1.33-.91-.09-2.1.94-2.91,1.71a8.59,8.59,0,0,1-8,2.26c-1.89,4.59-2,9.59-3.26,14.27-.41,1.49-.43,2.93-2.14,3.53,1.34-6.58,2.67-13.16,4-19.58,3.62-.74,7.28.52,9-3.17Z"/><path class="cls-46" d="M117.9,135.3l1.18,1.87c-1.6.28-2.78-.76-4.08-1.35-1.7-.78-2,.3-2.16,1.52-3.64-8.68-6.26-17.54-5-27.12,1.75,1.18,1.07,3,1,4.55a21.56,21.56,0,0,0,1.62,9.74c.73-1.12,0-2.57,1.33-3.22a1.36,1.36,0,0,0,.28.8v1.29a1.36,1.36,0,0,0,.85,1.81,5.87,5.87,0,0,0,1,4.09A9.8,9.8,0,0,0,117.9,135.3Z"/><path class="cls-47" d="M130.12,108.25c-.2,4.26.74,8.4,1.69,12.79-3.52.07-3.37-3.22-4.92-4.73l0,0a2.09,2.09,0,0,0-1-2h0a2.16,2.16,0,0,0-1-2l0,0a2.14,2.14,0,0,0-1-2,7.42,7.42,0,0,0-.06-.94,1.84,1.84,0,0,1,2.09-1.08l.14-.12c.12,1,.53,1.74,2,2.69-.65-3.51.33-6.62-1-9.64.24-2.06-1-3.87-1-5.89H128C129.43,99.48,129.18,104,130.12,108.25Z"/><path class="cls-48" d="M224.9,215.26v-1.91l1.79-.15c2.43,0,4.87,0,7.3.09,1.75.05,1.26-.93.93-1.87l12.85-4.2c1.38.29,3-.54,4.13,1l-1.08,1.1c-6.07,2.8-12.53,4.4-19,6.13-1.43-.12-2.9-.46-4,.83a3.32,3.32,0,0,1-.93-.22A2.14,2.14,0,0,0,224.9,215.26Z"/><path class="cls-49" d="M169.88,65.21a34.87,34.87,0,0,0,22-6.11l6.06-3.83,1.16,1.13v0a1.15,1.15,0,0,0-1.11,1l0,0a1.13,1.13,0,0,0-1,1c-.05.28-.09.57-.12.85h0c-2.13,1.17-4.47,2-6,4.11l.12-.06c-6.74,2.66-13.55,5-21,4l-.15-2Z"/><path class="cls-50" d="M219,310.29c-3-4.51-3.83-9.14-.62-13.9,1.4-2.07,2.86-4.17,5.8-4.09,2.52.07,9.58,3.82,11.19,7.2-.36.54-1.73.07-2.09-.26-2.06-1.86-8.54-5.26-11.09-3.3a7.87,7.87,0,0,0-3.06,8.41c.24,1,.57,1.91.85,2.86,0,.87,0,1.7,1,2v0c-.09.81-.12,1.65-1,2l0,0Z"/><path class="cls-51" d="M269.89,123.29l-.4-.17-.42.07c-1.23-1.09-2.68-1-4.15-.75l-8-.28c1.33-1.51,3.11-.63,4.67-.9,2.77-.47,5.83-.56,5.59-5h7.72v7.38l-2.24-.22Z"/><path class="cls-52" d="M88.16,435.37c-.89-.11-1.82-.12-2.28-1.11V434c.62.12.88-.21,1-.76h0c3.4-1.72,6.08-4.43,9.12-6.65a28.84,28.84,0,0,1,11.66-5.06c1.37-.27,2.29.06,2.24,1.69-.47.17-.94.34-1.08.91h0a18.52,18.52,0,0,0-11.29,5C94.05,430.69,91.79,434.05,88.16,435.37Z"/><path class="cls-53" d="M169.9,244.21c1-1.49,2.64-.75,4-1,1.18.08,2.51-.08,3.17,1.15a1.23,1.23,0,0,0-1,1.45c0,.18.12.41,0,.55a.71.71,0,0,1-.34.13c-.67.19-.71,1.1-.86,1.78a5.85,5.85,0,0,1-.55,1.32l-7.12,13.76c-.22.43-1.6,1-2,1.24a8.77,8.77,0,0,1-.42-1.87,6.93,6.93,0,0,1,.62-2.36c.65-1.57,1.34-3.13,2.07-4.66a33,33,0,0,1,2.84-5.06,11.3,11.3,0,0,0,1.55-2.48,3,3,0,0,1,.39-.87c.29-.37.83-.7.67-1.14a2.68,2.68,0,0,0,1-.45,1,1,0,0,0,.33-1c-.37-.92-2.72-.55-3.44-.36A1,1,0,0,1,169.9,244.21Z"/><path class="cls-54" d="M160.49,373.79c2-.7,6,2.82,9.15.22a35.62,35.62,0,0,0,7.16-8.78l2.09,0c-1.49,6.21-6.33,9.72-11,13.29-1.64,1.26-5.4,1.95-5.4,1.95a10.24,10.24,0,0,1-4.11-.26c0-.31.57-1.25.59-1.56C160.32,377.29,160,375.53,160.49,373.79Z"/><path class="cls-55" d="M159,370.27c1-6.68,3.42-13.06,4.1-19.82.13-1.38.41-1.35,3.95-1.83-3,7.89-3.83,16-6,23.81C160.51,371.58,161.83,368.94,159,370.27Z"/><path class="cls-56" d="M275,67.1c-.08-.61-.16-1.22-.25-1.83a17.09,17.09,0,0,0-5-9.93c2-.68,4.06,1.79,6-.11.28,2.26,1.54,3.36,4.55,4.2-1.4-2.55-2.23-4.07-3.49-5.29.08-2,1.57-1.86,2.92-1.91l2.13,3.05c-1.28,2.8-1.2,6.64-5.36,6.84-1,1.85-.6,3.49-.44,5.11l-.38.17A2.62,2.62,0,0,1,275,67.1Z"/><path class="cls-57" d="M177.87,91.3c-3.83,0-7.65-.08-11.48,0A20.93,20.93,0,0,1,157.62,90c5.26-3.28,13.71-3.18,20.15.25.49.19,1.3-.19,1.33.69C179.11,91,178.3,91.16,177.87,91.3Z"/><path class="cls-58" d="M119,69.26c2-3.44,2.21-6.58,0-10.28a10.34,10.34,0,0,1-.11-9.86c.07,1.45.15,2.9.23,4.44a11.32,11.32,0,0,1,3.88,2.73c-.43,1.3.54,2.07,1.14,3-1.51,2.07-1.24,4.39-.79,6.66a31.51,31.51,0,0,1,.42,9.34c-2-2.25.39-5.51-1.6-7.7C120.63,67.6,120.1,68.93,119,69.26Z"/><path class="cls-59" d="M209.88,170.1c.25-1.59-1.58-1.76-2-2.91,3.31-1.36,6.46-3.15,10-3.8l.29.12.28-.12a3.71,3.71,0,0,0,2.31,1,3.49,3.49,0,0,1,.27,3C217.55,169.07,213.93,170.46,209.88,170.1Z"/><path class="cls-60" d="M93.84,207.24,94,205c1.31,1,.34,2.79,1.44,4.1,3.87-4.27,7.54-8.66,12.21-12a2.48,2.48,0,0,1,1.41,1.48c-5,4.72-9.52,9.81-14.07,14.93C94.67,211.42,93.56,209.46,93.84,207.24Z"/><path class="cls-61" d="M118.94,189.46c4.19-2.62,8.47-1.62,12.77-.35a1.75,1.75,0,0,1,1.13,2c-2.86,1.59-6.35,1.86-8.87,4.2-1-.36-1.06-1.19-1.09-2.06a1.21,1.21,0,0,0,.17-.85h0a3.84,3.84,0,0,0,2.59-1.78c-.85-.69-1.78-.25-2.67-.3a.93.93,0,0,0-1.11.66l-.94.44-1.94-.1c-.71-.18-1.55-.1-2-.9a.87.87,0,0,1,.71-.27A1.06,1.06,0,0,0,118.94,189.46Z"/><path class="cls-62" d="M177.05,244.4c-.71-1.32-2-1.07-3.15-1.15,0-.31,0-.62,0-.93,0,.2,1.75-.69,1.9-.76,1.63-.83,3.36.05,5-.46.65-.2,1.21-.63,1.87-.8a7,7,0,0,1,2.37,0,12.89,12.89,0,0,0,4.92-.71,34.07,34.07,0,0,0,4.28-1.13c1.57-.72,3.17-1.4,4.76-2.11a6,6,0,0,1-2.78,4,7.22,7.22,0,0,1-3.75,1.1c-1.31,0-2.75-.45-4,.22a5.47,5.47,0,0,1-1.11.61c-.63.18-1.29-.14-1.95-.09a1.68,1.68,0,0,0-1.45,1.16,1.42,1.42,0,0,0,1.1,1.78l-.92,1.7a.68.68,0,0,1-.37.39.54.54,0,0,1-.49-.16,2.1,2.1,0,0,1-.5-1.76,5,5,0,0,0,0-1.88C181.79,240.31,177.05,244.4,177.05,244.4Z"/><path class="cls-63" d="M217.94,163.39c-3.58.65-6.73,2.44-10,3.8l-4.06-1.11a12.09,12.09,0,0,0-9.89,0l-1,.06c0-.66,0-1.32-.07-2l.42-.07.43.05c1.45,0,3,.62,4.21-.78h4c.88,1.19,2.11.84,3.29.75a9.58,9.58,0,0,0,6.1-1.38,11.67,11.67,0,0,1,6.6-1.72v.39Z"/><path class="cls-64" d="M254.81,305.22A58.7,58.7,0,0,1,243,319.34c-1,.3-2.27.94-2.16-1.08,4.3-5,9-9.71,13-15C253.93,304,254,304.81,254.81,305.22Z"/><path class="cls-65" d="M192.91,221.25v-2.93c1.11.49,1.43,1.62,2,2.55s1,1.6,2.08.63a1.62,1.62,0,0,0,.75-.14l.45.95a1.33,1.33,0,0,0,.05.9,6.26,6.26,0,0,0,1.66,6.2c.31,2.61,3.06,4.81,1.35,7.77-.75.21-1.17-.11-1.48-.8Q196.35,228.81,192.91,221.25Z"/><path class="cls-66" d="M242.8,381.16c.46-1.18,1.45-2.15,1.5-3.43-1.44-1.18-2.54.91-3.81.13-.13-.31-.43-.7-.34-.86,1.79-3,4.23-4.92,8.13-4.68,2.13,4.54-1.26,7-3.45,9.93A2,2,0,0,1,242.8,381.16Z"/><path class="cls-67" d="M242.8,381.16a2,2,0,0,0,2,1.09c-1.77,3.31-4.67,4.39-8.21,4.14-3.26-.23-5.64-2.37-5.65-5.58,0-2.52-.94-5.23.85-7.58l1.17,1.19c0,1.48-.11,3-.06,4.44.2,5.08,3.07,6.64,7.53,4.08A21.88,21.88,0,0,0,242.8,381.16Z"/><path class="cls-68" d="M249.75,48.3c-3.51-.23-6.66.27-9.52,2.82a4.76,4.76,0,0,1-6.36.05,1.68,1.68,0,0,1,.15-.83,16.93,16.93,0,0,0,7.2-5C245.13,43.24,247,47,249.75,48.3Z"/><path class="cls-69" d="M232.86,43.19,221,52.33a1.31,1.31,0,0,0-1.15.9h0a2.37,2.37,0,0,0-.92,0h0l0-1.7a.67.67,0,0,1,.63-.42,1.08,1.08,0,0,0,1.19-1.07,91.75,91.75,0,0,1,14.5-11.77C235.77,41,233.57,41.68,232.86,43.19Z"/><path class="cls-70" d="M183.89,247.35l1.3-2.27a.8.8,0,0,1,.79.3c.6,1.19,1.69.88,2.67.87l.34.24a1,1,0,0,0,1.21.57,19.26,19.26,0,0,1,8.07,3c-1.1.4-1.35,1.33-1.47,2.35C191.83,252.43,187.81,250,183.89,247.35Z"/><path class="cls-71" d="M145.9,35.27c-1.33-.82-1.36-2.29-.36-2.89,3-1.76,5.65-4.45,10-4L154.55,36c-3-.06-5.92,1.29-8.65-.76,4.54-.33,5.49-1,7.67-5.61-2.31,1.36-3.95,3.36-6.51,3.7C146,33.5,146,34.43,145.9,35.27Z"/><path class="cls-72" d="M249.75,48.3c-2.72-1.34-4.62-5.06-8.53-2.92l-2.69-.25c1.5-1.51,2.86-3.19,5.44-4.25,3.32,3.9,8.65,4.69,12.9,7.49-.75,1.28-2.07.74-3.14,1Z"/><path class="cls-73" d="M88.42,103.74a6.21,6.21,0,0,0-3.2-3.2c6.08-4.25,8.39-4.24,10.51-.05C93.79,103.57,94.32,102.78,88.42,103.74Z"/><path class="cls-74" d="M219.94,311.24c.91-.39.94-1.23,1-2,4.24,3.9,6.86,8.82,8.92,14.09-1.35.69-.84,2.07-1.15,3.14C226.66,320.87,222.54,316.5,219.94,311.24Z"/><path class="cls-75" d="M193.7,164.19l-.43-.05-.42.07c-4.26.78-5.1,2.56-2.49,5.5a9.4,9.4,0,0,0,2.44,1.48l1,1.05c-5.79-.9-7.52-2.07-7.94-5.72-.2-1.76-.48-3.83,1.49-4.86a4.05,4.05,0,0,1,5,.63,16.49,16.49,0,0,0,1.54,1.22A1.12,1.12,0,0,1,193.7,164.19Z"/><path class="cls-76" d="M186,245.38a.8.8,0,0,0-.79-.3l-.06.06a1,1,0,0,0-.21-.89c.38-1.06,1.59-1.13,2.23-1.88a.65.65,0,0,0,.7-.14c1.16,0,2.35.14,3.32-.74l2.74-.06c-.49,1-2.22,1-1.75,3.08,2.64,2.57,7.39,3,9.7,6.79l-.9.12a.84.84,0,0,0-.77-.31,1.35,1.35,0,0,0-1.29-.77.57.57,0,0,0-.63-.24,19.26,19.26,0,0,0-8.07-3l-1.21-.57-.34-.24C188.08,245,187,245.22,186,245.38Z"/><path class="cls-77" d="M199.06,56.4l-1.16-1.13,2.94-3.06h0a3.59,3.59,0,0,0,2.24-1.79l1.13-1a1.63,1.63,0,0,0,1.61-1.14c2.45-1.52,4.39-3.75,7.11-4.87.42.93,1.31.84,2.09,1-5.06,4-10.4,7.69-15.13,12.13A3,3,0,0,0,199.06,56.4Z"/><path class="cls-78" d="M254.81,305.22c-.85-.41-.88-1.2-.93-2,.54-2.36,1.74-4.65.73-7.39-1.57-1-5.52-.66-9.31,1.22-2.94,1.45-5.44,4.21-8.86,5.57.56-3.95,10.32-9.42,11.41-9.41.16.17.31.34.06,0,.28.26.11.1-.07,0a4.71,4.71,0,0,1,6,0c-.79.09-1.64-.2-2.35.45,1,.91,1.74.52,2.37-.43,2.36,0,3,1.56,3.15,3.58A12.05,12.05,0,0,1,254.81,305.22Z"/><path class="cls-79" d="M208.91,387.26c-5.86,3.74-9.95,2.37-12-4,.69.07,1.44,1.21,2.05-.12,2.51,2.55,5.29,3.91,8.82,2.07a1.2,1.2,0,0,0,1.06-1h0a1.27,1.27,0,0,0,1-1l0,0a1.81,1.81,0,0,1,1,2l0,.06-.93,1,0,0Z"/><path class="cls-79" d="M201.91,359.4a4.57,4.57,0,0,1,1-.16c1.35,1-.44,2.08.11,3.09h0a1.18,1.18,0,0,0-1,1.07c-3.21,5.94-3.45,12.36-3.1,18.88-1.88-1.76-.63-4-1-6s.93-4.28-1-6c-.17-4,2.48-6.77,4.05-10Z"/><path class="cls-80" d="M226.85,124.35a3.7,3.7,0,0,1-.3.78c-1.94.3-2.43,1.31-.82,2.51a10.06,10.06,0,0,0,7.1,1.65,5.09,5.09,0,0,1,.23.85c-4.57,3.19-7,3.18-9.33-.12-.93-1.31-2.38-2.57-1.29-4.44S225.18,124,226.85,124.35Z"/><path class="cls-81" d="M92.91,359.27c-1.79-.78-.27-3.1-1.86-4a85.16,85.16,0,0,1,0-12.06c1.54-.09,1.78-1.1,1.79-2.38,0-2.3.12-4.59.19-6.88.9,1.68.65,3.53.61,5.3C93.47,346,93.17,352.61,92.91,359.27Z"/><path class="cls-82" d="M253.91,217.25c1.54,5,4.46,9.35,5.93,14.4-5-2.66-5.68-8.18-8.16-12.49l.38-.11c1-.42.82-1.43,1.07-2.21Z"/><path class="cls-83" d="M202.9,60.5l1.59-.42a1.26,1.26,0,0,0,1.41-.61l1.7-.33a1.23,1.23,0,0,0,1.34-.78l.05,0,3.35.12a1.57,1.57,0,0,1-1.35.87,1,1,0,0,0-1.08.64l-1,.33a1,1,0,0,0-1,.69l-1.65.46a1.26,1.26,0,0,0-1.36.66l-1.72.3a1.15,1.15,0,0,0-1.27.63c-3.87.6-7.43,3-11.45,2.21-.47-1.07.32-1.41.51-2l-.12.06c2.11.33,3.86-1.27,5.94-1.1,1.42-.07,3,.55,4.13-.81a1.22,1.22,0,0,1,.87-.18A1,1,0,0,0,202.9,60.5Z"/><path class="cls-84" d="M264.94,367.23c1.32,1.2,2.68,2.36,4,3.6,4.1,4,3.88,7-.76,10.31-1.05.76-2.2,1.37-3.3,2-.31-.63-.61-1.27-.92-1.91,1.07-.62,1.65-1.7,3.06-2.13,3-.92,3.95-3,1.92-5.86C268.05,371,264.83,370.18,264.94,367.23Z"/><path class="cls-85" d="M142.88,64.17l-1,.32c-5.14-.81-9.9-2.95-14.9-4.25l0-.05a1.51,1.51,0,0,0-.07-.76l1.1-1.27h0c.66,1.48,2,1.05,3.12,1L141,61.58Z"/><path class="cls-86" d="M160.51,363.68c2.83-1.33,1.51,1.31,2.06,2.16,0,.74.1,1.46.94,1.77-.5,1.74-.72,3.6-2,5-1.7-.73-.82.65-1,1.18a1.89,1.89,0,0,1-.1.88c-1.45,1.06-1.91,2.35-1,4l0,0c-2.84-.24-1.63-2.48-2-4l0-.05c.92-.4,1-1.18.92-2h0c1.39-.68,1-1.92,1-3.05a2.65,2.65,0,0,1,.13-.93c1.29-.77.94-2,.83-3.13Z"/><path class="cls-87" d="M217.9,161.07c1.48-1.95,2.81-4.23,5.81-3.6,2.34.5,2.82,2.61,3.13,4.5.43,2.64.4,5.29-2.83,6.42l-.13-1.1a10,10,0,0,0,0-3.94c1.44-1.18,1.65-2.78.21-3.73s-3-.56-3.16,1.65l-3,.19Z"/><path class="cls-88" d="M223.88,167.29l.13,1.1a18.58,18.58,0,0,1-12.23,4c-1.66,0-1.66-.14-1.9-2.33,4.05.36,7.67-1,11.21-2.76Z"/><path class="cls-89" d="M234,50.34a1.68,1.68,0,0,0-.15.83l-10.23,5.4c-1.41.75-2.7,1.85-4.47,1.55-.17-1.49,1-1.94,2-2.49,3.83-2.19,7.67-4.34,11.51-6.51Z"/><path class="cls-90" d="M160.07,201.05a2,2,0,0,0-1.12,2c-3.85-2.3-6.14-5.89-8.12-9.75,1-.37,1-1.22,1.09-2.08A63.35,63.35,0,0,0,160.07,201.05Z"/><path class="cls-91" d="M228.74,326.43c.31-1.07-.2-2.45,1.15-3.14,1.13.7,1.44,2,2.07,3,.31.9.62.76.92,0l.05,0c1,.13,2.24-.33,2.89.93v0a1.71,1.71,0,0,0-1.83,2.17,2.63,2.63,0,0,1-1.65,2.42A6.15,6.15,0,0,1,228.74,326.43Z"/><path class="cls-92" d="M120.72,137.39l5.3-.17a6.48,6.48,0,0,0,6.93.21l-.08,1.82h0c-1,.64-2.35.8-2.93,2l0,0-4-.08C124.28,139.87,122.05,139.24,120.72,137.39Z"/><path class="cls-93" d="M213,143.59c-3.78-5.36-3.79-8.92,0-12.62Z"/><path class="cls-94" d="M315,192.35c.73-2.32,2.72-2.46,4.42-1.95,3.35,1,7.08.56,10.18,2.9a3.56,3.56,0,0,1-1.75,2.92c0-2.22-1.85-2.45-3.32-2.85A23.82,23.82,0,0,0,315,192.35Z"/><path class="cls-95" d="M121.49,419.16c.16.7.33,1.39.49,2.09-.27.68-.28,1.49-1,1.9-.21-1.37-.83-2.07-2.35-1.61-2.21.66-4.45,1.24-6.67,1.86l-1-.24c.43-1.73,3.18-1.67,3-3.88,2.1-.36,4.48.89,6.32-1.25C120.58,417.62,121,418.87,121.49,419.16Z"/><path class="cls-96" d="M212.92,353.25c1.53,1.71,3.26,3.32,3,5.94-.3,1.37.59,3.05-1,4.08-1.39-2.84-1.49-6.49-5-8l-1-2,0-.05Z"/><path class="cls-97" d="M307,349c.21-4.69-2.26-8.93-2.25-13.59l1.48-.62c1.49.88,0,2.73,1.13,3.76l1.36-1.23a5.07,5.07,0,0,1-.15,3c-.09.07-.28.16-.27.22a3.25,3.25,0,0,0,.2.6l-.7,8.06A1.26,1.26,0,0,1,307,349Z"/><path class="cls-98" d="M329.83,208.23h-1.9c-.78-1.2-2.2-.58-3.13-1.06-2.73-1.4-6.89-.55-7.81-4.84l0,0C321.81,203.1,326.39,204.43,329.83,208.23Z"/><path class="cls-99" d="M210.85,385.18a1.81,1.81,0,0,0-1-2,55.73,55.73,0,0,0,5-12c.28,1.37-.57,3,1,4.06C214.84,378.9,213.79,382.52,210.85,385.18Z"/><path class="cls-100" d="M317,202.34c.92,4.29,5.08,3.44,7.81,4.84.93.48,2.35-.14,3.13,1.06-4.79,1.91-8.65-.68-12.72-2.43C315.28,204.22,315.68,203,317,202.34Z"/><path class="cls-101" d="M315,192.35a23.82,23.82,0,0,1,9.53,1c1.47.4,3.31.63,3.32,2.85l-1.93,0c-3.48-1.61-7.2-1.95-11-2.05h0c0-.62,0-1.25,0-1.88Z"/><path class="cls-102" d="M138.87,204.17c.48-.94,1.57-.79,2.33-1.21-.28-.77-1-.57-1.45-.78a5.66,5.66,0,0,1,.27-.79c6.12.78,7.61,3.07,5.16,7.93l-2.17,0c.36-1.48,1.7-2.93-.23-4.78C141.81,204,140.28,204.49,138.87,204.17Z"/><path class="cls-103" d="M268.9,373.28c2,2.83,1,4.94-1.92,5.86-1.41.43-2,1.51-3.06,2.13.49-1.82-1.17-2.82-1.66-4C263.71,374.36,268.72,378.12,268.9,373.28Z"/><path class="cls-104" d="M121,423.15c.74-.41.75-1.22,1-1.9l2,.08c.2,3.78-1.76,15.22-4,19.24C118.06,436.68,121.06,425.91,121,423.15Z"/><path class="cls-105" d="M215.89,375.27c-1.6-1-.75-2.69-1-4.06l0-7.94c1.63-1,.74-2.71,1-4.08A27.53,27.53,0,0,1,215.89,375.27Z"/><path class="cls-106" d="M176.9,355.28c-1.82-3.2-4.84-4.16-8.66-4.13,4.47-3.55,8.08-2,10.7,4.1Z"/><path class="cls-107" d="M235.82,327.19c-.65-1.26-1.87-.8-2.89-.93a50.13,50.13,0,0,0,7.95-8c-.11,2,1.11,1.38,2.16,1.08C241.27,322.55,238.37,324.71,235.82,327.19Z"/><path class="cls-108" d="M269.77,55.34a17.09,17.09,0,0,1,5,9.93c-.68-.2-1.46-1.21-1.93.24-.75-1.75-1.57-3.48-2.24-5.26s-2.65-2.36-3-4.14C268.15,55.12,269,55.34,269.77,55.34Z"/><path class="cls-100" d="M329.83,208.23c-3.44-3.8-8-5.13-12.86-5.87,3.6-3.37,6.44.83,9.69,1a4.37,4.37,0,0,1,4,3.8C330.78,207.7,330.33,208.06,329.83,208.23Z"/><path class="cls-7" d="M290.92,95.23c2.6-.48,3.49,1.65,4.45,3.22a14.42,14.42,0,0,1,2.49,8.92c-1.43-1.44-1.08-3.93-3-5.1a.8.8,0,0,0-.12-.93c-.74-2.37-2.95-3.73-4-5.86Z"/><path class="cls-109" d="M87.87,83.53c3.89-2.47,6.72-.18,9.66.7C94.52,85.7,91.54,85.88,87.87,83.53Z"/><path class="cls-110" d="M113.68,89.55c-1.73-3.66-.6-7.52-.78-11.29l1-1,1.71-.06c-1.16,3.62-.78,7.34-.68,11Z"/><path class="cls-111" d="M151.92,191.23c-.06.86-.11,1.71-1.09,2.08-2.19-2.16-3.28-4.91-4.18-7.75a2.6,2.6,0,0,0,1.33-2.48C150.62,185.16,150.17,188.73,151.92,191.23Z"/><path class="cls-112" d="M294.88,102.27c1.9,1.17,1.55,3.66,3,5.1-.3,2.07,1.3,3.84.95,5.92-.95.5-.89,1.45-1,2.32-2.08-4.21-1.74-9.18-4.13-13.29H294l.34-.12A1.57,1.57,0,0,1,294.88,102.27Z"/><path class="cls-113" d="M176.9,355.28l2,0a11.34,11.34,0,0,1-.05,10l-2.09,0,.3-3a4.85,4.85,0,0,0-.1-5.9Z"/><path class="cls-114" d="M113.68,89.55l1.24-1.29h0a.92.92,0,0,0,.57,1c1.1,3.31.84,6.95,2.35,10.17,0,.31,0,.61,0,.92-.89-.78-2.25-.88-2.88-2C115.4,95.27,113.18,92.61,113.68,89.55Z"/><path class="cls-115" d="M312.51,176c3.1-1.2,5.54-.66,8.32-.45C318.34,179.13,316.43,179.23,312.51,176Z"/><path class="cls-116" d="M200.84,52.21l-2.94,3.06-6.06,3.83c-.72-1.17-1.91-.7-2.93-.84,2.46-2,6.19-2,8.05-5l-.11,0c.64,0,1.06-.32,1.06-1C198.86,50.53,199.86,51.9,200.84,52.21Z"/><path class="cls-117" d="M295,135.33a24,24,0,0,1-3,10.16l-.13-8.23C292,135,293.53,135.27,295,135.33Z"/><path class="cls-118" d="M157,45.2c-1.78-.46-2.49-2.39-4.16-3,.16-1.38,3.57-.72,2-3.19.69-.67,1.77-.94,1.86.12.18,2.23,2,2.82,3.23,4.07C158.93,43.84,157.66,44.06,157,45.2Z"/><path class="cls-119" d="M287.64,96.45a10.49,10.49,0,0,0-5.45,0,2.11,2.11,0,0,1-1.34-1.25,2.61,2.61,0,0,0,.13-.74c1.89-.87,3.82-1.61,6-1.18l2.86,2.19C289.36,96.36,288.42,96.23,287.64,96.45Z"/><path class="cls-120" d="M192.8,171.19a9.4,9.4,0,0,1-2.44-1.48c-2.61-2.94-1.77-4.72,2.49-5.5,0,.66.05,1.32.07,2-1.7,1.06,0,2,.12,3Z"/><path class="cls-121" d="M248.8,132.34l5.29,0a9.79,9.79,0,0,0-.3,3.92c-1.65.31-3.29-1.19-4.95,0a2.53,2.53,0,0,0-1.16-2.82Z"/><path class="cls-122" d="M233,374.42l-1.17-1.19a20.7,20.7,0,0,1,4.05-8c0,.95.2,1.84,1.23,2.25C236.45,370.22,234.56,372.22,233,374.42Z"/><path class="cls-123" d="M253.91,217.25l-.78-.41c-.68-2.24,1.12-5.31-2.23-6.65a3.91,3.91,0,0,0-.07-.9l1.08-1.1,2.94-1c-.44,2.29-1.5,4.52-.15,6.93C255.29,215.18,254.34,216.24,253.91,217.25Z"/><path class="cls-124" d="M196.88,370.25c1.94,1.72.64,4,1,6s-.87,4.27,1,6a4.12,4.12,0,0,1,.1.86c-.61,1.33-1.36.19-2.05.12C195.29,378.93,196.68,374.59,196.88,370.25Z"/><path class="cls-94" d="M315,194.2c3.76.1,7.48.44,11,2.05C321.72,198.46,318.26,196.76,315,194.2Z"/><path class="cls-125" d="M97.49,429.08a18.52,18.52,0,0,1,11.29-5c0,.33,0,.92,0,.94C104.85,426,101.78,429.26,97.49,429.08Z"/><path class="cls-126" d="M208.92,353.29l1,2c-2.58,2.07-3.94,5.34-6.9,7.05-.55-1,1.24-2.11-.11-3.09C205.67,358,206.65,355,208.92,353.29Z"/><path class="cls-127" d="M237.71,363.08c1.67-1.72,2.92-4,5.88-4.74.41,3.92-3.13,4.8-4.61,7C238.91,364.39,238.73,363.5,237.71,363.08Z"/><path class="cls-128" d="M253.73,49.34c1.07-.23,2.39.31,3.14-1,2.17.92,4.46,1.71,5.43,4.82C258.43,53.18,256.35,50.65,253.73,49.34Z"/><path class="cls-129" d="M233.06,130.14a5.09,5.09,0,0,0-.23-.85l1-.9,7.07,0c-.25,2.23,2.22,1.45,2.92,2.64Z"/><path class="cls-130" d="M234,50.34l-1.35-1.22,0,0a1.15,1.15,0,0,0,1.15-.93h0l1-.74,2.32-2.08,1.37-.28,2.69.25A16.93,16.93,0,0,1,234,50.34Z"/><path class="cls-131" d="M132.84,191.12a1.75,1.75,0,0,0-1.13-2,8.93,8.93,0,0,1,8.2.13c-1,.21-2,.47-2,1.79Z"/><path class="cls-132" d="M247.68,133.42a2.53,2.53,0,0,1,1.16,2.82c-1.25.89-.94,2.88-2.51,3.53-2.25-1.65-.72-3.59-.4-5.44l1.25-.92A.62.62,0,0,0,247.68,133.42Z"/><path class="cls-133" d="M96,69.14c1.33.7,2.24,2.12,3.89,2.25.12,1.47-.82,1.87-2,2-1.65-.13-2.58-1.5-3.88-2.24C93.85,69.71,94.75,69.27,96,69.14Z"/><path class="cls-134" d="M192.8,171.19l.24-2c2.27,1.74,5,2,8.13,2.27-2.5,3.57-5,1-7.34.8Z"/><path class="cls-135" d="M128,95.27h-1.92l-.35-8,1.32-.06.77,1Z"/><path class="cls-136" d="M117,190.43c.44.8,1.28.72,2,.9,0,.29-.12.57-.2.86l-5.86,3.17-.09-2.28A6.4,6.4,0,0,1,117,190.43Z"/><path class="cls-137" d="M112.84,193.08l.09,2.28a8.17,8.17,0,0,1-3.85,3.23,2.48,2.48,0,0,0-1.41-1.48C108.93,195.17,110.9,194.15,112.84,193.08Z"/><path class="cls-138" d="M253.79,136.29a9.79,9.79,0,0,1,.3-3.92c1.6.35,1.64,2.07,2.61,3,.1,1.4.91,3.23-1.78,2.91Z"/><path class="cls-139" d="M282.85,52.33c1.8.36,3.28-1.14,5.09-.94-.67,2.48-.67,2.48-4.13,3.79C284,54.05,283.23,53.26,282.85,52.33Z"/><path class="cls-140" d="M196.79,62.21c-2.08-.17-3.83,1.43-5.94,1.1,1.51-2.08,3.85-2.94,6-4.11l1.09,2Z"/><path class="cls-141" d="M164.66,262.87l.47,1.77,2-1.25c.28,2.09-1.2,3.38-2.2,4.9-.72,0-1.53,1.2-2.12-.19a1,1,0,0,1,.21-.83,1.87,1.87,0,0,0,.81-2.09C163.84,264.31,163.78,263.42,164.66,262.87Z"/><path class="cls-142" d="M276.86,54.14c1.26,1.22,2.09,2.74,3.49,5.29-3-.84-4.27-1.94-4.55-4.2Z"/><path class="cls-143" d="M212.34,58.44,209,58.32c1.3-1.57,3.33-2,4.91-3.06.77.05,1.56.06,2,.91l-2.12,2Z"/><path class="cls-144" d="M237.71,363.08c1,.42,1.2,1.31,1.27,2.26a2.28,2.28,0,0,1-1.88,2.14c-1-.41-1.18-1.3-1.23-2.25A3.63,3.63,0,0,1,237.71,363.08Z"/><path class="cls-20" d="M234.93,211.42c.33.94.82,1.92-.93,1.87-2.43-.07-4.87-.06-7.3-.09C229.29,211.9,232.18,212,234.93,211.42Z"/><path class="cls-145" d="M140,201.39a5.66,5.66,0,0,0-.27.79c-2.42-.47-4.46,1.4-6.85,1.06l0,0a5.17,5.17,0,0,1,2.91-3C136.87,202,138.67,200.84,140,201.39Z"/><path class="cls-146" d="M128,58.16l-1.1,1.27a1.88,1.88,0,0,0-.91.08l-1-.19-.9,0c-.6-.92-1.57-1.69-1.14-3A9.81,9.81,0,0,1,128,58.16Z"/><path class="cls-7" d="M113.89,77.28l-1,1c0-1.61,0-3.21,0-4.82a1.93,1.93,0,0,1,2-2.22l.32.28C115.07,73.5,113.63,75.2,113.89,77.28Z"/><path class="cls-147" d="M97.83,73.4c1.2-.14,2.14-.54,2-2,1.71.56,2.47,1.57,1.68,3.39C99.73,75.75,98.74,74.7,97.83,73.4Z"/><path class="cls-148" d="M157.44,374.73c.33,1.48-.88,3.72,2,4,0,1.4-.51,2.21-2.37,1.65C156.28,378.49,155.74,376.58,157.44,374.73Z"/><path class="cls-149" d="M194,166.13a12.09,12.09,0,0,1,9.89,0Z"/><path class="cls-150" d="M282.85,52.33c.38.93,1.16,1.72,1,2.85l-1.9.1-2.13-3.05C280.86,50.51,281.84,52,282.85,52.33Z"/><path class="cls-151" d="M154.84,39c1.57,2.47-1.84,1.81-2,3.19H151c-.49-1.73,1.36-1.88,2-2.88Z"/><path class="cls-152" d="M238.89,227.3c1.4-1.69,1.88-4.52,5-4C242.7,225.2,241.39,227,238.89,227.3Z"/><path class="cls-153" d="M96,69.14c-1.21.13-2.11.57-2,2-1.39-.51-2.54-1.39-1.38-2.84C94,66.57,95.08,67.79,96,69.14Z"/><path class="cls-154" d="M117,322.38c-.23-1,.33-2.33-.94-3.05a2.15,2.15,0,0,1,.79-2.24c.54,1.41,1.28.33,1.94.15A8.55,8.55,0,0,1,117,322.38Z"/><path class="cls-155" d="M157,45.2c.66-1.14,1.93-1.36,2.93-2,.94.35,1,1.11.88,1.94l-2.88,1.06,0,0-1-1Z"/><path class="cls-118" d="M153,39.32c-.59,1-2.44,1.15-2,2.88a2.15,2.15,0,0,1-1.85-2.2C150.44,38.91,151.74,39.36,153,39.32Z"/><path class="cls-156" d="M275,80.27c1.77,2.26.78,4.82.8,7.27-.24-.16-.49-.3-.74-.45Z"/><path class="cls-46" d="M114.9,142.27a8.39,8.39,0,0,1-2.07-5C116.33,137.79,114.41,140.54,114.9,142.27Z"/><path class="cls-106" d="M177,356.3a4.85,4.85,0,0,1,.1,5.9Z"/><path class="cls-157" d="M260.68,365.06c-.72,1.52-1.51,1.24-2.55.49C258.81,363.85,259.62,364.28,260.68,365.06Z"/><path class="cls-158" d="M125.94,141.25l4,.08-1,1.87A2.63,2.63,0,0,1,125.94,141.25Z"/><path class="cls-159" d="M212.92,353.25h-4C210.24,350.74,211.58,350.85,212.92,353.25Z"/><path class="cls-125" d="M110.91,423.16l1,.24c-.11.75.16,1.57-.43,2.25-1.22,0-1.71-1.2-2.72-1.53.14-.57.61-.74,1.08-.91Z"/><path class="cls-160" d="M215,44.36c-.78-.15-1.67-.06-2.09-1,.87-.56,1.7-1.79,2.81-.74C216.46,43.29,215.83,44,215,44.36Z"/><path class="cls-7" d="M289.82,95.45,287,93.26c1.7-.1,3.22.16,4,2l-.2.25A2.28,2.28,0,0,0,289.82,95.45Z"/><path class="cls-7" d="M117,62c2,1.79,1.28,3.54-.07,5.29C117,65.54,117,63.78,117,62Z"/><path class="cls-81" d="M93,327.55c-.06-1.79-.82-3.68.7-5.26C93.79,324.08,93.92,325.88,93,327.55Z"/><path class="cls-161" d="M215.87,56.17c-.41-.85-1.2-.86-2-.91a6.56,6.56,0,0,1,3-2l.19.19c-.05.64-.1,1.28-.16,1.92A1,1,0,0,1,215.87,56.17Z"/><path class="cls-148" d="M159.42,378.66c-.94-1.64-.48-2.93,1-4C160.28,376.05,160.81,377.59,159.42,378.66Z"/><path class="cls-118" d="M157.93,46.21l2.88-1.06C160.6,47.52,159.65,47.92,157.93,46.21Z"/><path class="cls-149" d="M193.7,164.19a1.12,1.12,0,0,0,.23-.68l4-.1C196.72,164.81,195.15,164.16,193.7,164.19Z"/><path class="cls-162" d="M189.87,239.42c-1.22,1.36-2.77.8-4.23.74A5.48,5.48,0,0,1,189.87,239.42Z"/><path class="cls-163" d="M303,291.11l1.73.37.15,1.81C303.48,293.24,302.81,292.55,303,291.11Z"/><path class="cls-162" d="M178.89,243.2c1.36-1.35,2.7-1.5,4,.07h-1Z"/><path class="cls-143" d="M196.79,62.21l1.13-1a1.82,1.82,0,0,0,1-.07l2,.29C199.76,62.76,198.21,62.14,196.79,62.21Z"/><path class="cls-108" d="M274,72.27c1.21.7.88,1.9.94,3l-.69.06A5.37,5.37,0,0,1,274,72.27Z"/><path class="cls-107" d="M234,329.39a1.71,1.71,0,0,1,1.83-2.17A3.06,3.06,0,0,1,234,329.39Z"/><path class="cls-140" d="M200.92,61.4l-2-.29c.87-1.12,2-.85,3.2-.72-.1.28-.2.56-.31.83A1.22,1.22,0,0,0,200.92,61.4Z"/><path class="cls-121" d="M244.91,131.45l3,0v.8C246.83,132.23,245.67,132.55,244.91,131.45Z"/><path class="cls-104" d="M124,421.37c0-1.1-.4-2.29.81-3.07A3.57,3.57,0,0,1,124,421.37Z"/><path class="cls-116" d="M205.84,48.24a1.63,1.63,0,0,1-1.61,1.14c-.22-.22-.64-.6-.63-.62C204.21,48,205.07,48.34,205.84,48.24Z"/><path class="cls-148" d="M159.34,369.61c0,1.13.42,2.37-1,3.05C158.3,371.52,158.24,370.38,159.34,369.61Z"/><path class="cls-149" d="M205.2,164.17c-1.18.09-2.41.44-3.29-.75A4,4,0,0,1,205.2,164.17Z"/><path class="cls-51" d="M253.94,122.22l-1.05.07c.11-.75,0-1.66,1.14-1.75C254.77,121.15,253.94,121.66,253.94,122.22Z"/><path class="cls-148" d="M160.3,365.55c.11,1.14.46,2.36-.83,3.13C159.33,367.53,159.3,366.4,160.3,365.55Z"/><path class="cls-116" d="M203.1,50.41a3.59,3.59,0,0,1-2.24,1.79C200.9,50.72,201.71,50.2,203.1,50.41Z"/><path class="cls-161" d="M219,51.54l0,1.7-1.84.22-.19-.19A3.31,3.31,0,0,1,219,51.54Z"/><path class="cls-152" d="M243.92,223.29c-.06-1.42.62-2.09,2-2A2.74,2.74,0,0,1,243.92,223.29Z"/><path class="cls-146" d="M131.08,59.19c-1.16,0-2.46.45-3.12-1A3.65,3.65,0,0,1,131.08,59.19Z"/><path class="cls-43" d="M169.83,65.25l.15,2C168.68,66.67,168.68,66,169.83,65.25Z"/><path class="cls-7" d="M116.94,67.29l.13,1a.8.8,0,0,0-.25.81,5.79,5.79,0,0,1-.8.27l-.17-.13C115.91,68.42,116,67.63,116.94,67.29Z"/><path class="cls-74" d="M221,309.23c-1-.32-1.07-1.15-1-2A1.93,1.93,0,0,1,221,309.23Z"/><path class="cls-154" d="M115.87,320.18a1.83,1.83,0,0,1-.89,2.1A2.05,2.05,0,0,1,115.87,320.18Z"/><path class="cls-154" d="M114.81,323.08c.15.9.09,1.72-.87,2.17A2,2,0,0,1,114.81,323.08Z"/><path class="cls-148" d="M160.49,373.79c.15-.53-.73-1.91,1-1.18a7.23,7.23,0,0,0,0,.93C161.12,373.64,160.81,373.72,160.49,373.79Z"/><path class="cls-148" d="M158.38,372.65c.08.85,0,1.63-.92,2A1.72,1.72,0,0,1,158.38,372.65Z"/><path class="cls-84" d="M264.79,383.25l0,2C263.72,384.62,263.74,384,264.79,383.25Z"/><path class="cls-7" d="M114.86,71.22c0-.8.16-1.57,1-2l.17.13c-.06.8-.07,1.61-.84,2.12Z"/><path class="cls-30" d="M175.89,241.4a1.82,1.82,0,0,1-2,.83A2,2,0,0,1,175.89,241.4Z"/><path class="cls-30" d="M181.89,240.42a1.94,1.94,0,0,1-2,.81,7,7,0,0,0,0-.79Z"/><path class="cls-162" d="M179.89,240.44a7,7,0,0,1,0,.79l-2.31-.13A2.15,2.15,0,0,1,179.89,240.44Z"/><path class="cls-156" d="M274.22,75.29l.69-.06c0,.75-.07,1.49-.11,2.24A2.25,2.25,0,0,1,274.22,75.29Z"/><path class="cls-111" d="M145.75,183.35c1.16.36,1.13,1.22.9,2.16C145.71,185.05,145.75,184.19,145.75,183.35Z"/><path class="cls-94" d="M315,192.33c0,.63,0,1.26,0,1.88C313.72,193.58,313.71,193,315,192.33Z"/><path class="cls-90" d="M161.8,202.33c-.88,0-1.62-.23-1.75-1.28A2.16,2.16,0,0,1,161.8,202.33Z"/><path class="cls-70" d="M196.79,252.39c.91-.19,1.7-.1,2.14.88A1.8,1.8,0,0,1,196.79,252.39Z"/><path class="cls-162" d="M175,248.29c-.13-.91.05-1.64,1.1-1.86C176.25,247.39,175.72,247.91,175,248.29Z"/><path class="cls-108" d="M273.15,68.31a1.89,1.89,0,0,1,.61,2.19A2.42,2.42,0,0,1,273.15,68.31Z"/><path class="cls-30" d="M176.1,246.22c-.26-.93,0-1.6,1-1.84C177,245.11,176.89,245.85,176.1,246.22Z"/><path class="cls-90" d="M163,203.21a1.18,1.18,0,0,1-1.17-.84A1.25,1.25,0,0,1,163,203.21Z"/><path class="cls-45" d="M96.78,381a1.19,1.19,0,0,1-.84,1.27C95.84,381.57,96.28,381.25,96.78,381Z"/><path class="cls-30" d="M181.91,243.27h1v1l-.77,0Z"/><path class="cls-90" d="M159.75,203.34a1.05,1.05,0,0,1,1.09,1.07Z"/><path class="cls-102" d="M144,211.5a1.18,1.18,0,0,1,.79-1.24A1,1,0,0,1,144,211.5Z"/><path class="cls-161" d="M220.79,50.05a1.08,1.08,0,0,1-1.19,1.07A1.6,1.6,0,0,1,220.79,50.05Z"/><path class="cls-143" d="M201.91,63a1.15,1.15,0,0,1,1.27-.63A1.09,1.09,0,0,1,201.91,63Z"/><path class="cls-102" d="M142.83,213.11a.88.88,0,0,1,.73-.86A.8.8,0,0,1,142.83,213.11Z"/><path class="cls-121" d="M247.18,133.41l-1.25.92A1.14,1.14,0,0,1,247.18,133.41Z"/><path class="cls-70" d="M201,251.42l.9-.12a2.55,2.55,0,0,1,.35.79A1.14,1.14,0,0,1,201,251.42Z"/><path class="cls-99" d="M209.88,386.23l.93-1A1.12,1.12,0,0,1,209.88,386.23Z"/><path class="cls-99" d="M208.91,387.26l1-1A1.21,1.21,0,0,1,208.91,387.26Z"/><path class="cls-143" d="M201.79,61.22c.11-.27.21-.55.31-.83a2.71,2.71,0,0,1,.8.11A1,1,0,0,1,201.79,61.22Z"/><path class="cls-118" d="M157,45.21l1,1A1.1,1.1,0,0,1,157,45.21Z"/><path class="cls-70" d="M199.61,253.39l1.17.38Z"/><path class="cls-143" d="M209.91,60a1,1,0,0,1,1.08-.64A1.06,1.06,0,0,1,209.91,60Z"/><path class="cls-74" d="M219,310.29l1,.93A1.08,1.08,0,0,1,219,310.29Z"/><path class="cls-143" d="M207.91,61a1,1,0,0,1,1-.69C208.71,60.69,208.46,61,207.91,61Z"/><path class="cls-107" d="M232.88,326.3c-.3.76-.61.9-.92,0A2.84,2.84,0,0,1,232.88,326.3Z"/><path class="cls-162" d="M182.13,244.26l.77,0c0,.39-.07.79-.11,1.18A1,1,0,0,1,182.13,244.26Z"/><path class="cls-111" d="M147.67,182.26A1.21,1.21,0,0,1,147,181,1.17,1.17,0,0,1,147.67,182.26Z"/><path class="cls-143" d="M208.94,58.36a1.23,1.23,0,0,1-1.34.78A1.55,1.55,0,0,1,208.94,58.36Z"/><path class="cls-6" d="M308.5,341.17a3.25,3.25,0,0,1-.2-.6c0-.06.18-.15.27-.22A.59.59,0,0,1,308.5,341.17Z"/><path class="cls-140" d="M196.82,59.21c0-.28.07-.57.12-.85a6.72,6.72,0,0,1,.87-.18l.26.24Z"/><path class="cls-143" d="M204.9,62.09a1.26,1.26,0,0,1,1.36-.66A1.25,1.25,0,0,1,204.9,62.09Z"/><path class="cls-140" d="M199.11,57.46l-1.05.95-.25-.23a4.33,4.33,0,0,0,.16-.86l0,0a6.24,6.24,0,0,0,1-.07Z"/><path class="cls-111" d="M145.11,182.28a1,1,0,0,1,.68,1.13A.88.88,0,0,1,145.11,182.28Z"/><path class="cls-140" d="M199.06,56.4a3,3,0,0,1,.85.09l-.8,1-.2-.19a1.6,1.6,0,0,0,.14-.89Z"/><path class="cls-164" d="M197.91,52.25c0,.71-.42,1-1.06,1C196.83,52.56,197.3,52.34,197.91,52.25Z"/><path class="cls-102" d="M141.92,214.28a1.05,1.05,0,0,1,.84-1.06A1,1,0,0,1,141.92,214.28Z"/><path class="cls-126" d="M201.91,359.4l-1,.82A.93.93,0,0,1,201.91,359.4Z"/><path class="cls-136" d="M118.94,189.46a1.06,1.06,0,0,1-1.23.7A1,1,0,0,1,118.94,189.46Z"/><path class="cls-1" d="M251.68,219.16l-.85-.8.29-.27.94,1Z"/><path class="cls-143" d="M205.9,59.47a1.26,1.26,0,0,1-1.41.61A1.3,1.3,0,0,1,205.9,59.47Z"/><path class="cls-165" d="M227.84,216.25c1.14-1.29,2.61-.95,4-.83-.78.94-.28,1.72.32,2.5a6.24,6.24,0,0,1-4.5,1.37c-7.39,0-14.79,0-22.19,0-1.58,0-3.48.44-3.62-2.1,7-.24,14.09.84,21.07-.64C224.65,217.62,226.3,217.84,227.84,216.25Z"/><path class="cls-166" d="M223,216.52c-7,1.48-14.05.4-21.07.64l-.39-.07-.38.11c-2.57-1.57-5.5-.31-8.18-1,1.32-1.53,3.1-.85,4.66-.86,9.1-.07,18.2,0,27.3,0a2.14,2.14,0,0,1,2,.77Z"/><path class="cls-165" d="M192.94,216.15c2.68.74,5.61-.52,8.18,1l-3.42.2a8.49,8.49,0,0,1-.76,4.1c-1.06,1-1.54.32-2.08-.63s-.85-2.06-2-2.55C193,217.6,191.66,216.85,192.94,216.15Z"/><path class="cls-167" d="M252.06,219.05l-.94-1c-1-2.6-2.12-5.21-.22-7.9,3.35,1.34,1.55,4.41,2.23,6.65C252.88,217.62,253.07,218.63,252.06,219.05Z"/><path class="cls-165" d="M198.14,222.31l-.45-.95c2.47,0,3.22,1.69,2.73,3.65a26.51,26.51,0,0,0-.57,4.4,6.26,6.26,0,0,1-1.66-6.2c.1-.09.31-.22.29-.27A4.28,4.28,0,0,0,198.14,222.31Z"/><path class="cls-168" d="M109.08,198.59a8.17,8.17,0,0,0,3.85-3.23l5.86-3.17a1.85,1.85,0,0,0,2.14-.76l.94-.44.48.11.49-.07.22,1.38h0a1,1,0,0,0-1.13.89h0a1.13,1.13,0,0,0-.92,1.15,2.21,2.21,0,0,0-.13.76,37.1,37.1,0,0,0-7,6c-4.82,4.21-9.61,8.45-13.26,13.78-3.19,1.18-3,2.88-.88,5,1.63-.8,2.11-2.18,2.53-3.59,3.89-5.36,9.43-9.15,13.61-14.23a7,7,0,0,0,3.1-2.64A1.67,1.67,0,0,0,120,198.3l-.09.11a1.35,1.35,0,0,0,1.11-1.09l0,.14c1-.67,2.2-1,2.87-2.14,2.52-2.34,6-2.61,8.87-4.2l5.08-.09c1,.36,1.78.65.85,2a40.37,40.37,0,0,1-7.19,7.41q-10.16,8.58-19.5,18c-2.53-.05-3.48,1.08-2.9,3.45,2,.85,3-.12,3.75-1.51,2.35,0,3.4-1.91,4.67-3.3,5.84-6.41,13.21-10.22,21.27-12.91,1.41.32,2.94-.19,3.91.35,1.93,1.85.59,3.3.23,4.78A28.18,28.18,0,0,1,130.62,219c-2.62,1-2.52,1.23-2.23,4.81,8.34-3.42,16.77-6,25.65-5.24,1.7,3,.64,5.05-1.55,6.35-5.36,3.18-11.38,4.35-17.47,4.93-5.5.53-10.27,2.26-13.58,6.84a101.88,101.88,0,0,0-11.19,19.89c-2.51,6-5.17,11.81-8.15,17.56a51.58,51.58,0,0,0-5.31,19.5,61.87,61.87,0,0,1-2.32,13.66c-3.82,11.79-3.94,23.82-3.41,35.95a85.16,85.16,0,0,0,0,12.06,96,96,0,0,0,1.78,26.52c.49,2.2-.74,4.65,1,6.66-.14,1.44.66,1.93,2,1.93-.9,6-3.76,11.56-3.93,17.73q-3.24,9.72-6.47,19.45c-.74,2.22-.58,4.18,1.49,5.64h0a.79.79,0,0,0-1,.76v.27a35.59,35.59,0,0,1-15.2,4c-4.14.15-6.76-1.68-8.85-5.18C57,425,55.45,415.86,54,406.75c-1.32-8-2.65-16-3.72-24a79.22,79.22,0,0,1-.41-10.46c0-9.65-.66-19.38.27-28.94,1-10.61.19-21.26,1.71-31.83.75-5.13,2.55-9.89,4.25-14.69C60.22,285,64.6,273.23,69,261.49a110.58,110.58,0,0,1,11.48-22,25.23,25.23,0,0,0,4.23-10.35c.35-2.29.87-4.56,1.31-6.84.94.14,1.83,2,2.82.08a32.08,32.08,0,0,0,6.18-8.9C99.56,208.4,104.12,203.31,109.08,198.59Z"/><path class="cls-169" d="M86,213.11c.07-4.9-.65-9.87.69-15.46,3.52,3,4.91,6.25,6.13,9.6l-.84,2.1c-1.56.36-2.32,1.64-3.07,2.83S87.2,213.38,86,213.11Z"/><path class="cls-170" d="M86,213.11c1.16.27,2.14.28,2.91-.93s1.51-2.47,3.07-2.83a16.11,16.11,0,0,1-2.28,8c-.75,1.4-3.18,3-.91,5.1-1,1.89-1.88.06-2.82-.08l-.32-1.18a16.78,16.78,0,0,0,0-5.87Z"/><path class="cls-171" d="M88.83,222.42c-2.27-2.11.16-3.7.91-5.1a16.11,16.11,0,0,0,2.28-8l.84-2.1a8,8,0,0,0,1,0c-.28,2.22.83,4.18,1.17,6.28A32.08,32.08,0,0,1,88.83,222.42Z"/><path class="cls-172" d="M85.71,215.29a16.78,16.78,0,0,1,0,5.87A4.91,4.91,0,0,1,85.71,215.29Z"/><path class="cls-173" d="M160.16,129.43h6.15l3,5.68c-3.6.31-4.86-2.83-7-5.21-1.91,2.5-1.57,5.93-4.35,7.39l-.27-.29c.61-2.08.29-4.22.34-6.32Z"/><path class="cls-174" d="M184.88,127.53l1.07-.43c3-.07,6,1,8.82-.9-1,4.94-4.67,6.37-8.28,3.19A16.92,16.92,0,0,1,184.88,127.53Z"/><path class="cls-175" d="M194.77,126.2c-2.78,1.9-5.86.83-8.82.9.25-.76,1-1.64-.44-2,.94-1,2.11-.84,3.28-.68.69,1.18,1.81.79,2.83.77l3.15.08A1.25,1.25,0,0,1,194.77,126.2Z"/><path class="cls-7" d="M125.71,87.31l.35,8c0,2,1.27,3.83,1,5.89-.75,2.26.51,4.8-1,7l-.14.12,0-1.13-1-.82h0a12.75,12.75,0,0,0-5.12-5c-.77-.51-.9-1.65-1.93-1.89-1.51-3.22-1.25-6.86-2.35-10.17a.89.89,0,0,0-.57-1h0c-.1-3.7-.48-7.42.68-11,.8-2.28,1.59-4.56,2.39-6.85l0-.05,1-1.06c1.12-.33,1.65-1.66,3.13-1.68,2,2.19-.36,5.45,1.6,7.7Q124.72,81.3,125.71,87.31Z"/><path class="cls-176" d="M116.82,69.11a.8.8,0,0,1,.25-.81c.8.45.83,1.24.88,2l0,.05Z"/><path class="cls-97" d="M304.81,335.37c-2.4-4.42-3.3-9.33-4.62-14.09,2.75.71,2.42,3.19,2.92,5.05.84,1.42,2.7.46,3.69,2.06C305.89,330.47,304.35,332.67,304.81,335.37Z"/><path class="cls-177" d="M293.87,295.23c-.07-2.56,0-5.06,2.93-6.18-.08,1.08-1,1.95-.45,3.24C297.26,294.57,295.72,295.11,293.87,295.23Z"/><path class="cls-178" d="M283.06,126.21c-.23-2-.35-4,.7-5.82.57,1.33-.43,2.93.75,4.26.85-1.93.26-3.88.41-5.77.09-1.73,1.21-2.38,2.73-2.59.8,1.2,1.62,1.3,2.46,0a1,1,0,0,1,.77,0c.08,1,.15,1.92.23,2.88l-.34.15c-1.91,0-2,1.32-1.78,2.71.2,1.1.6,2.17.91,3.25-.32,3.69-4.06,5.25-4.92,8.5l-3.13-.54,2.18-4.06c1.1-.71.9-1.34-.12-1.93Z"/><path class="cls-117" d="M297,120.26c.91,5.24-.12,10.22-2,15.1v-4.91c-.92-.44-2,.57-2.76-.57-1.66,2.34-1.91,6.33-6.32,5.38,1.15-1.62,2.27-3.27,3.45-4.87,2.22-3,3.78-6.23,3.52-10.09l.17-.15Z"/><path class="cls-179" d="M284,129.19l-2.18,4.06c-1.33.18-3.17-.29-2.71,2.15l-.21,5.87-1,1c-.25-1.72.36-3.51-.59-5.53-.77,2.28-.3,4.32-.47,6.3a1.63,1.63,0,0,1-.84.17c-.08-.64-.17-1.29-.26-1.93l.33-26c2,2.32-.55,5.69,1.78,8,1,2.69-.84,5.84,1.31,8.49,3.5-.4,2-4.16,3.86-5.53l.85,1.05Z"/><path class="cls-180" d="M289.82,95.45a2.28,2.28,0,0,1,.9,0c1.09,2.13,3.3,3.49,4,5.86-.4.17-.73.37-.41.87l-.34.12h-.35a13.21,13.21,0,0,0-6-5.87C288.42,96.23,289.36,96.36,289.82,95.45Z"/><path class="cls-181" d="M280.85,95.18a2.11,2.11,0,0,0,1.34,1.25c-.91,1-1.62,2.29-3.15,2.79C278,96.91,279.65,96.14,280.85,95.18Z"/><path class="cls-182" d="M284.92,118.88c-.15,1.89.44,3.84-.41,5.77-1.18-1.33-.18-2.93-.75-4.26Z"/><path class="cls-156" d="M277.77,85.22c-1.57-1.53-.75-3.41-.76-5.17A7.79,7.79,0,0,1,277.77,85.22Z"/><path class="cls-117" d="M291.11,119.18c-.08-1-.15-1.92-.23-2.88,1.44.88,1.76,2.39,2.15,3.85l-.17.15Z"/><path class="cls-108" d="M275,67.1a2.62,2.62,0,0,0,.76.3l.1,3.85C274.35,70.12,275,68.53,275,67.1Z"/><path class="cls-156" d="M276.76,76.27c-1.22-.92-.86-2.17-.71-3.38A3.53,3.53,0,0,1,276.76,76.27Z"/><path class="cls-183" d="M290.11,116.34c-.84,1.25-1.66,1.15-2.46,0A2.9,2.9,0,0,1,290.11,116.34Z"/><path class="cls-184" d="M123.86,109.31a7.42,7.42,0,0,1,.06.94c0,.86.09,1.65,1,2l0,0c0,.86,0,1.65,1,2h0a1.85,1.85,0,0,0,1,2l0,0q0,6.48,0,12.95l-3.12-1.88h0c.09-1,0-1.82-1.18-2-1.78-1.75-2.57-4.28-4.6-5.84s-3.88-1.93-5.26.8l-1,1c-1.28.65-.6,2.1-1.33,3.22a21.56,21.56,0,0,1-1.62-9.74c0-1.55.7-3.37-1-4.55a.94.94,0,0,1,.14-1c1.34-.88.88-2.17.79-3.38,2.21-5.68,3.56-6.19,9.07-3.41.7,1.39.54,4.13,2.11,4C122.55,106.21,122.52,108.47,123.86,109.31Zm1.68,15.61c-.13,0-.31,0-.36.09s-.13.34-.07.43c.23.37.46.32.57-.12C125.71,125.21,125.59,125.05,125.54,124.92Zm-.3-7c0,.14-.16.3-.13.42.13.48.36.5.57,0a.51.51,0,0,0-.09-.42C125.54,117.92,125.36,118,125.24,117.94Z"/><path class="cls-185" d="M123.86,109.31c-1.34-.84-1.31-3.1-3.94-2.85-1.57.15-1.41-2.59-2.11-4,0-.71,0-1.42,0-2.13,0-.31,0-.61,0-.92,1,.24,1.16,1.38,1.93,1.89a7,7,0,0,0,5.12,5h0a1.18,1.18,0,0,0,1,.82l0,1.13A1.84,1.84,0,0,0,123.86,109.31Z"/><path class="cls-46" d="M108.74,105.89c.09,1.21.55,2.5-.79,3.38C107.79,108,107.69,106.83,108.74,105.89Z"/><path class="cls-168" d="M117,322.38a8.55,8.55,0,0,0,1.79-5.14c2.34-5.2,3.1-10.83,4-16.34,1.56-9.47,5.23-18,9.93-26.24.81-1.42,1.93-2.71,2.22-4.41,6.1-9.07,13.31-16.92,23.38-21.76a70.12,70.12,0,0,1,11.62-4.28,1,1,0,0,0,.85.17l2.09,1.78-.06.11a.71.71,0,0,0-.71,1l-.18.22c-.89.29-1,.94-.85,1.76-2.6,4.33-5.08,8.72-6.38,13.66-.88.55-.82,1.44-.81,2.31a2.17,2.17,0,0,0-.81,2.09,1,1,0,0,0-.21.83,3.21,3.21,0,0,0-1.17,2.11,92.33,92.33,0,0,1-13.52,26.93c-5.12,7.19-8.9,15.11-12.4,23.16-3.45,2.9-4.12,6.77-3.83,11l-3.24,16c-4.26,2.05-4.61,7.13-7.74,10.05-4,2.23-7.89,5.12-12.89,2.8q3.15-17.55,7.95-34.71a2,2,0,0,0,.79-2.19A1.29,1.29,0,0,0,117,322.38Z"/><path class="cls-186" d="M108,360.16c5,2.32,8.87-.57,12.89-2.8l1.87-.2,3.31.15c-.67,8.42-2.52,16.66-3.43,25.06-1.1,10.13-.48,20.24-.85,30.34-.07,2.15.24,4.33-.34,6.45-.54-.29-.91-1.54-1.26-1.13-1.84,2.14-4.22.89-6.32,1.25h-5.26c-1.43-.93.32-1.45-1.11-2-1.56.55-3.81.5-4.8,1.94-2.46,3.57-6.36,4.76-9.84,6.69-4.23-2.61-4.23-2.61-2.9-6.44,1.39,1.28.78,5.63,4.66,3-.81-4.75-3.91-9.17-2.83-14.35.17-6.17,3-11.73,3.93-17.73,1.65-2.16,1.88-4.9,3-7.26.17.53,0,1.3.84,1.4a23.43,23.43,0,0,0,2.94-6.75c.37-1.11-.52-1.37-1.38-1.51,1.87-5,4.77-9.63,5.73-15Z"/><path class="cls-187" d="M122.8,357.16l-1.87.2c3.13-2.92,3.48-8,7.74-10.05a31.46,31.46,0,0,1-1.88,6.93C125.49,355.25,123.57,355.42,122.8,357.16Z"/><path class="cls-187" d="M131.91,331.28c-.29-4.21.38-8.08,3.83-11-.61,2.32-1.21,4.65-1.82,7C132.47,328.21,133.29,330.3,131.91,331.28Z"/><path class="cls-188" d="M122.8,357.16c.77-1.74,2.69-1.91,4-2.92a3.68,3.68,0,0,1-.68,3.07Z"/><path class="cls-189" d="M269.89,123.29l2.75.12c.91,2.66.21,4.31-2.71,5.1a50.32,50.32,0,0,1-7.08,1.59l-1-1.76a10.92,10.92,0,0,1,4-1.22,2,2,0,0,0,2.17-.76,1.24,1.24,0,0,0,.79-.23c.47,0,1.12.35,1.3-.49l-1.3-.19c-1.05-.36-2.27-.19-3.14-1.07C267.09,123.93,268.83,124.9,269.89,123.29Z"/><path class="cls-190" d="M258.88,135.28c1.12-2.5,1.12-2.5,3.86-.43-1.21.77-2.57.25-3.84.44Z"/><path class="cls-191" d="M137.23,128.12c-.09-4.28.2-4.53,6.65-5.64-1.27,3,1.53,1.23,2.23,1.92-.89.77-2,.77-3.1,1-1.07-.16-2.13-.29-2.8,1,1.58,1.3,3.17.81,4.7.74l15,.32c-1.41,1.67-3.63.15-5.23,1.26.64.85,1.5.42,2.24.56l-1.07,1.08c-2.91-.91-4.47,1.42-6.16,2.83-1.4-.67-.32-2.11-1.36-2.66C144.66,129.5,140.69,130,137.23,128.12Z"/><path class="cls-192" d="M188.79,124.38c-1.17-.16-2.34-.28-3.28.68-5.26.33-10.45,1.84-15.78,1-.14-1.57,1.19-2.32,1.53-3.43,6.69-1,13.09-.26,19.46.87C190.31,124.31,189.5,124.23,188.79,124.38Z"/><path class="cls-193" d="M159.91,127.45l-15-.32-1.9-1.72c1.07-.24,2.21-.24,3.1-1a57.82,57.82,0,0,0,12.25-1c2.68-.47,4.51.35,5.08,3.29C162.49,127.69,161,127,159.91,127.45Z"/><path class="cls-194" d="M155.85,130.35l1.07-1.08,3.24.16L158,130.68c-.05,2.1.27,4.24-.34,6.32l-1.82-1.72C155.86,133.64,155.85,132,155.85,130.35Z"/><path class="cls-195" d="M168.73,123.25c-.7,1.1-.9,3-2.35,3-.87,0-1.4-2.21-1.32-2.42C165.6,122.56,167.49,122.72,168.73,123.25Z"/><path class="cls-196" d="M188.79,124.38c.71-.15,1.52-.07,1.93-.88,1.18.07,1.07.85.9,1.65C190.6,125.17,189.48,125.56,188.79,124.38Z"/><path class="cls-70" d="M198.9,250.34a1.35,1.35,0,0,1,1.29.77A1.23,1.23,0,0,1,198.9,250.34Z"/><path class="cls-197" d="M291.11,119.18l1.75,1.12c.26,3.86-1.3,7.09-3.52,10.09-1.18,1.6-2.3,3.25-3.45,4.87a5.47,5.47,0,0,0-1,.12l-5.77,0c-.46-2.44,1.38-2,2.71-2.15l3.13.54c.86-3.25,4.6-4.81,4.92-8.5,1.81-1.77.82-3.94.87-6Z"/><path class="cls-198" d="M279.14,135.4l5.77,0c-1.78,2.18-3,5-6,5.89Z"/><path class="cls-199" d="M276.88,143c.17-2-.3-4,.47-6.3.95,2,.34,3.81.59,5.53a2.44,2.44,0,0,1-.06.93Z"/><path class="cls-12" d="M276.88,143l1,.16a1.43,1.43,0,0,1-1.94,1c-.77-.26-.33-.66.1-.94A1.63,1.63,0,0,0,276.88,143Z"/><path class="cls-200" d="M125.71,87.31q-1-6-2-12a31.51,31.51,0,0,0-.42-9.34c-.45-2.27-.72-4.59.79-6.66l.9,0,.2,2a179.25,179.25,0,0,1,1.85,26Z"/><path class="cls-201" d="M125.18,61.27l-.2-2,1,.19a1,1,0,0,0,1,.68l0,.05A1.82,1.82,0,0,1,125.18,61.27Z"/><path class="cls-202" d="M265.73,124.38c.87.88,2.09.71,3.14,1.07,0,.23,0,.46,0,.68a1.24,1.24,0,0,1-.79.23,2,2,0,0,0-2.17.76,10.92,10.92,0,0,0-4,1.22l-2,.13a5.71,5.71,0,0,0-4.25.67c-2.08-1.24-.38-2.68-.36-4.16C258.82,124.1,262.3,124.59,265.73,124.38Z"/><path class="cls-203" d="M240.92,128.41l-7.07,0,.08-.28a1.94,1.94,0,0,0-2-.84h0a6.22,6.22,0,0,1,.06-.86l-.13-.28a28.88,28.88,0,0,0,7.93-.51c1.86-.35,3.32-.14,3.8,2C242.93,128.66,241.8,128.11,240.92,128.41Z"/><path class="cls-204" d="M233.85,128.39l-1,.9a10.06,10.06,0,0,1-7.1-1.65c-1.61-1.2-1.12-2.21.82-2.51,1.72.55,3.77-.64,5.28,1l.13.28-2,0-1.39.21c.18,1,.87.54,1.41.53l1.91.15h0a1.79,1.79,0,0,0,2,.84Z"/><path class="cls-205" d="M252.77,125.54c-2.33,3.68-3.14,3.75-6.74.59C249.05,125.14,249.05,125.14,252.77,125.54Z"/><path class="cls-189" d="M264.92,122.44c1.47-.23,2.92-.34,4.15.75C267.64,123.22,266.11,123.78,264.92,122.44Z"/><path class="cls-189" d="M255.64,129.14a5.71,5.71,0,0,1,4.25-.67C258.64,129.78,257.1,129.21,255.64,129.14Z"/><path class="cls-158" d="M155.85,130.35c0,1.64,0,3.29,0,4.93-1.05,0-2.25.26-2.48,1.27-1.35,5.83-5.59,4.91-10,4.42l-1.22-4.51c.33-1.89,2.56-.45,3-2.05-3.52-3.67-6.06,2.05-9.77.65.47,2.45,0,4.21-2.62,4.19l.08-1.82.11-.11a1,1,0,0,0,.82-1.09c-.23-1.33,1-3-1-3.92,1-1.87,3-2.72,4.31-4.19,3.46,1.86,7.43,1.38,11.1,2.4,1,.55,0,2,1.36,2.66C151.38,131.77,152.94,129.44,155.85,130.35Z"/><path class="cls-158" d="M130,141.29c.58-1.25,1.92-1.41,2.93-2,0,.85-.09,1.64-1,2-.33,0-.65,0-1,0h-1Z"/><path class="cls-3" d="M130.93,141.3c.32,0,.64,0,1,0C131.59,142,131.27,142.1,130.93,141.3Z"/><path class="cls-206" d="M112.93,220.38c-.78,1.39-1.74,2.36-3.75,1.51-.58-2.37.37-3.5,2.9-3.45C112.36,219.09,112.64,219.73,112.93,220.38Z"/><path class="cls-207" d="M132.9,203.24c.08.4-.28.85-.43.71-.74-.74.08-.59.46-.67Z"/><path class="cls-208" d="M236.82,87.7a33.94,33.94,0,0,1,10.49,0C243,88.6,239.88,89,236.82,87.7Z"/><polygon class="cls-209" points="250.64 87.78 250.31 87.91 250.34 87.59 250.64 87.78"/><path class="cls-154" d="M116.78,323.26a2,2,0,0,1-.79,2.19A1.87,1.87,0,0,1,116.78,323.26Z"/><path class="cls-210" d="M112.77,120.32c1.38-2.73,3.23-2.36,5.26-.8s2.82,4.09,4.6,5.84c.19.8.31,1.63,1.18,2h0c.19,2.17,1.41,4,2.35,5.81,1.19,2.36,3,3.84,5.82,2.08l1.09,1.25a1.45,1.45,0,0,0,0,.8l-.11.11a6.48,6.48,0,0,1-6.93-.21c-3.34-3.41-4-8.39-7-12a2.31,2.31,0,0,0-1.18-1.91h0a4,4,0,0,0-2.62-2.6,4.37,4.37,0,0,0-1.75,2.41.65.65,0,0,0-.51.32,2.48,2.48,0,0,0-.9,0v-1.29A1.51,1.51,0,0,0,112.77,120.32Z"/><path class="cls-211" d="M117.9,135.3a9.8,9.8,0,0,1-4-6C117.46,129.84,117.65,132.59,117.9,135.3Z"/><path class="cls-212" d="M113.51,123.1a4.37,4.37,0,0,1,1.75-2.41,4,4,0,0,1,2.62,2.6Z"/><path class="cls-212" d="M117.89,123.29a2.31,2.31,0,0,1,1.18,1.91C118,125,117.92,124.15,117.89,123.29Z"/><path class="cls-212" d="M112.1,123.38a2.48,2.48,0,0,1,.9,0l0,1.77A1.36,1.36,0,0,1,112.1,123.38Z"/><path class="cls-213" d="M101.2,376.29c.86.14,1.75.4,1.38,1.51a23.43,23.43,0,0,1-2.94,6.75c-.89-.1-.67-.87-.84-1.4C98.84,380.59,100.33,378.55,101.2,376.29Z"/><path class="cls-143" d="M217.09,53.46l1.84-.22h0a5.87,5.87,0,0,0-.05.83l-1.95,1.31C217,54.74,217,54.1,217.09,53.46Z"/><path class="cls-89" d="M234.84,47.49l-1,.74C234.05,47.8,234.29,47.43,234.84,47.49Z"/><path class="cls-89" d="M233.86,48.22a1.15,1.15,0,0,1-1.15.93A1.11,1.11,0,0,1,233.86,48.22Z"/><path class="cls-161" d="M219.88,53.23a1.31,1.31,0,0,1,1.15-.9A1.11,1.11,0,0,1,219.88,53.23Z"/><path class="cls-161" d="M218.88,54.07a5.87,5.87,0,0,1,.05-.83,2.37,2.37,0,0,1,.92,0A1,1,0,0,1,218.88,54.07Z"/><path class="cls-214" d="M133,136.52,132,135.27c-.25-1.17.54-2,1-3,2,.9.73,2.59,1,3.92C133.61,136.34,133.33,136.43,133,136.52Z"/><path class="cls-39" d="M94.89,385.28l.24.22-.22-.24Z"/><path class="cls-212" d="M112.77,120.32a1.51,1.51,0,0,1-.68,1.77,1.36,1.36,0,0,1-.28-.8Z"/><path class="cls-215" d="M126.09,108.11c1.51-2.15.25-4.69,1-7,1.32,3,.34,6.13,1,9.64C126.62,109.85,126.21,109.07,126.09,108.11Z"/><path class="cls-41" d="M125,112.24c-1-.34-1.07-1.13-1-2A2.14,2.14,0,0,1,125,112.24Z"/><path class="cls-41" d="M125.92,114.25c-.93-.39-1-1.18-1-2A2.16,2.16,0,0,1,125.92,114.25Z"/><path class="cls-41" d="M126.87,116.28a1.85,1.85,0,0,1-1-2A2.09,2.09,0,0,1,126.87,116.28Z"/><path class="cls-216" d="M223,216.52l3.95-.49a3.32,3.32,0,0,0,.93.22C226.3,217.84,224.65,217.62,223,216.52Z"/><path class="cls-77" d="M198,57.32a4.33,4.33,0,0,1-.16.86,6.72,6.72,0,0,0-.87.18A1.13,1.13,0,0,1,198,57.32Z"/><path class="cls-77" d="M199.05,56.38a1.6,1.6,0,0,1-.14.89,6.24,6.24,0,0,1-1,.07A1.15,1.15,0,0,1,199.05,56.38Z"/><path class="cls-217" d="M91.83,408.14c-1.08,5.18,2,9.6,2.83,14.35-3.88,2.61-3.27-1.74-4.66-3-1.33,3.83-1.33,3.83,2.9,6.44,3.48-1.93,7.38-3.12,9.84-6.69,1-1.44,3.24-1.39,4.8-1.94,1.43.55-.32,1.07,1.11,2h5.26c.18,2.21-2.57,2.15-3,3.88l-1,0c0-1.63-.87-2-2.24-1.69A28.84,28.84,0,0,0,96,426.58c-3,2.22-5.72,4.93-9.12,6.65-2.07-1.46-2.23-3.42-1.49-5.64Q88.6,417.87,91.83,408.14Z"/><path class="cls-217" d="M85.89,434a.79.79,0,0,1,1-.76C86.77,433.78,86.51,434.11,85.89,434Z"/><path class="cls-162" d="M172.84,246.16l-2.09-1.78a5.38,5.38,0,0,1,3.43.1C174.34,245.53,173.76,246,172.84,246.16Z"/><path class="cls-162" d="M171,249.21c-.2-.82,0-1.47.85-1.76C172,248.24,171.93,248.92,171,249.21Z"/><path class="cls-162" d="M172.07,247.23a.71.71,0,0,1,.71-1A.73.73,0,0,1,172.07,247.23Z"/><path class="cls-218" d="M223.88,167.29l-2.79.05a3.49,3.49,0,0,0-.27-3c-.42-1.15-1.36-1.07-2.31-1l-.28.12-.29-.12,0-1.93,3-.19,3,2.08A10,10,0,0,1,223.88,167.29Z"/><path class="cls-63" d="M218.51,163.39c1-.09,1.89-.17,2.31,1A3.71,3.71,0,0,1,218.51,163.39Z"/><path class="cls-219" d="M124,195.32c-.67,1.1-1.88,1.47-2.87,2.14l-.22-2.26a2.21,2.21,0,0,1,.13-.76,1.23,1.23,0,0,0,.92-1.15h0c.32,0,.64,0,1,0C122.91,194.13,123,195,124,195.32Z"/><path class="cls-220" d="M123.06,192.41c-.08-.46-.15-.92-.22-1.38a1.15,1.15,0,0,1,.14-.7c.89,0,1.82-.39,2.67.3A3.84,3.84,0,0,1,123.06,192.41Z"/><path class="cls-220" d="M120.93,191.43a1.85,1.85,0,0,1-2.14.76c.08-.29.15-.57.2-.86Z"/><path class="cls-220" d="M122.88,193.26c-.32,0-.64,0-1,0a1,1,0,0,1,1.13-.89A1.21,1.21,0,0,1,122.88,193.26Z"/><path class="cls-136" d="M123,190.33a1.15,1.15,0,0,0-.14.7l-.49.07-.48-.11A.93.93,0,0,1,123,190.33Z"/><path class="cls-162" d="M187.15,242.37c-.64.75-1.85.82-2.23,1.88a4.68,4.68,0,0,1-1,0C183.92,241.75,185.62,242.21,187.15,242.37Z"/><path class="cls-162" d="M191.17,241.49c-1,.88-2.16.76-3.32.74C188.73,241,190,241.27,191.17,241.49Z"/><path class="cls-70" d="M183.93,244.24a4.68,4.68,0,0,0,1,0,1,1,0,0,1,.21.89A1.18,1.18,0,0,1,183.93,244.24Z"/><path class="cls-1" d="M198.14,222.31a4.28,4.28,0,0,1,.34.63c0,.05-.19.18-.29.27A1.33,1.33,0,0,1,198.14,222.31Z"/><path class="cls-162" d="M186,245.38c1-.16,2.1-.39,2.67.87C187.67,246.26,186.58,246.57,186,245.38Z"/><path class="cls-162" d="M189,246.49l1.21.57A1,1,0,0,1,189,246.49Z"/><path class="cls-221" d="M145.9,35.27c0-.84.09-1.77,1.16-1.91,2.56-.34,4.2-2.34,6.51-3.7-2.18,4.62-3.13,5.28-7.67,5.61Z"/><path class="cls-222" d="M253.91,293.28c-.63,1-1.37,1.34-2.37.43.71-.65,1.56-.36,2.35-.45Z"/><path class="cls-222" d="M247.84,293.22c.18.15.35.31.07,0,.25.29.1.12-.06,0Z"/><path class="cls-223" d="M203,362.33c3-1.71,4.32-5,6.9-7.05,3.52,1.5,3.62,5.15,5,8l0,7.94a55.73,55.73,0,0,1-5,12l0,0-1,1h0l-1.06,1c-3.53,1.84-6.31.48-8.82-2.07a4.12,4.12,0,0,0-.1-.86c-.35-6.52-.11-12.94,3.1-18.88l1-1.07Z"/><path class="cls-99" d="M208.87,384.25l1-1A1.27,1.27,0,0,1,208.87,384.25Z"/><path class="cls-99" d="M207.82,385.21l1.06-1A1.2,1.2,0,0,1,207.82,385.21Z"/><path class="cls-126" d="M203,362.33l-1,1.07A1.18,1.18,0,0,1,203,362.33Z"/><path class="cls-22" d="M126.94,60.19a1,1,0,0,1-1-.68,1.88,1.88,0,0,1,.91-.08A1.51,1.51,0,0,1,126.94,60.19Z"/><path class="cls-224" d="M223.84,163.35l-3-2.08c.2-2.21,1.85-2.51,3.16-1.65S225.28,162.17,223.84,163.35Z"/><path class="cls-225" d="M294.35,102.21c-.32-.5,0-.7.41-.87a.8.8,0,0,1,.12.93A1.57,1.57,0,0,0,294.35,102.21Z"/><path class="cls-226" d="M116.82,69.11,118,70.37c-.8,2.29-1.59,4.57-2.39,6.85l-1.71.06c-.26-2.08,1.18-3.78,1.29-5.78.77-.51.78-1.32.84-2.12A5.79,5.79,0,0,0,116.82,69.11Z"/><path class="cls-110" d="M114.92,88.25a.89.89,0,0,1,.57,1A.92.92,0,0,1,114.92,88.25Z"/><path class="cls-21" d="M163,267.27a2.17,2.17,0,0,1,.81-2.09A1.87,1.87,0,0,1,163,267.27Z"/><path class="cls-227" d="M115.87,202.21c-4.18,5.08-9.72,8.87-13.61,14.23a1.77,1.77,0,0,1-1.65-1.42c3.65-5.33,8.44-9.57,13.26-13.78C114.66,201.32,115.46,201.36,115.87,202.21Z"/><path class="cls-228" d="M115.87,202.21c-.41-.85-1.21-.89-2-1a37.1,37.1,0,0,1,7-6l.22,2.26,0-.14a1.25,1.25,0,0,0-1.11,1.09l.09-.11a1.39,1.39,0,0,0-1.07,1.27A7,7,0,0,1,115.87,202.21Z"/><path class="cls-229" d="M100.61,215a1.77,1.77,0,0,0,1.65,1.42c-.42,1.41-.9,2.79-2.53,3.59C97.64,217.9,97.42,216.2,100.61,215Z"/><path class="cls-220" d="M121.93,193.29a1.23,1.23,0,0,1-.92,1.15A1.13,1.13,0,0,1,121.93,193.29Z"/><path class="cls-230" d="M119,199.57A1.39,1.39,0,0,1,120,198.3,1.67,1.67,0,0,1,119,199.57Z"/><path class="cls-230" d="M120,198.41a1.25,1.25,0,0,1,1.11-1.09A1.35,1.35,0,0,1,120,198.41Z"/><path class="cls-184" d="M124.89,106.29a7,7,0,0,1-5.12-5A12.75,12.75,0,0,1,124.89,106.29Z"/><path class="cls-184" d="M125.92,107.1a1.18,1.18,0,0,1-1-.82Z"/><path class="cls-231" d="M290.77,119.33c0,2,.94,4.19-.87,6-.31-1.08-.71-2.15-.91-3.25C288.74,120.65,288.86,119.37,290.77,119.33Z"/><path class="cls-197" d="M284,129.19l-.12-1.93C284.93,127.85,285.13,128.48,284,129.19Z"/><path class="cls-44" d="M123.81,127.39c-.87-.4-1-1.23-1.18-2C123.83,125.57,123.9,126.44,123.81,127.39Z"/><path class="cls-41" d="M125.54,124.92c0,.13.17.29.14.4-.11.44-.34.49-.57.12-.06-.09,0-.31.07-.43S125.41,124.94,125.54,124.92Z"/><path class="cls-41" d="M125.24,117.94c.12,0,.3,0,.35,0a.51.51,0,0,1,.09.42c-.21.45-.44.43-.57,0C125.08,118.24,125.19,118.08,125.24,117.94Z"/><path class="cls-232" d="M268.87,126.13c0-.22,0-.45,0-.68l1.3.19C270,126.48,269.34,126.08,268.87,126.13Z"/><path class="cls-232" d="M265.91,127.12a2,2,0,0,1,2.17-.76A2,2,0,0,1,265.91,127.12Z"/><path class="cls-233" d="M143,125.41l1.9,1.72c-1.53.07-3.12.56-4.7-.74C140.88,125.12,141.94,125.25,143,125.41Z"/><path class="cls-234" d="M231.9,127.27l-1.91-.15a1.43,1.43,0,0,1,0-.74l2,0A6.22,6.22,0,0,0,231.9,127.27Z"/><path class="cls-234" d="M233.93,128.11a1.79,1.79,0,0,1-2-.84A1.94,1.94,0,0,1,233.93,128.11Z"/><path class="cls-235" d="M230,126.38a1.43,1.43,0,0,0,0,.74c-.54,0-1.23.43-1.41-.53Z"/><path class="cls-92" d="M133,136.52c.29-.09.57-.18.84-.29a1,1,0,0,1-.82,1.09A1.45,1.45,0,0,1,133,136.52Z"/><path class="cls-6" d="M8,414.35A5.51,5.51,0,0,0,8,416.7a.45.45,0,0,0,.26.33l1,.25a4.86,4.86,0,0,0,.55.11l.39,0,.38,0a1.28,1.28,0,0,1,.72.34,2.28,2.28,0,0,1-.14.24,3.77,3.77,0,0,1-1.39,0,7.18,7.18,0,0,1-.76-.19c-.36-.09-.61-.15-.75-.17a.29.29,0,0,0-.27.08,5.52,5.52,0,0,1,0,.76,6.64,6.64,0,0,1,0,.67c0,.07,0,.19,0,.37a.91.91,0,0,0,.14.31c0,.05.1.08.22.09h0l0,.26c0,.05-.11.16-.3.32a1,1,0,0,1-.35.23c-.24,0-.35-.49-.34-1.36a8.19,8.19,0,0,0-.08-1.92A7.55,7.55,0,0,0,5,416.78a28,28,0,0,1-2.69-.86l-.44-.16a1.33,1.33,0,0,1-.18-.44h.73l.59.21,1.45.47a6.74,6.74,0,0,0,.7.2l2.05.43.34-2.35Z"/><path class="cls-6" d="M10.6,405.28a12.86,12.86,0,0,0,.94,1.37c1.11,1.4,1.63,2.31,1.56,2.72s-.41.67-1.08,1l-1.46.68c0,.17.26.53.78,1.07s.72.93.67,1.27l-.11.15q-.36.14-1.56.45a7.33,7.33,0,0,1-1.47.33.55.55,0,0,1-.43-.42,4.77,4.77,0,0,1,1.26-.5c.78-.23,1.22-.35,1.32-.39l0-.29a3.33,3.33,0,0,1-.57-.64l-.57-.55c-.29-.28-.42-.49-.4-.65a.42.42,0,0,1,.3-.33l1.37-.6c.71-.31,1.08-.57,1.12-.77a7.18,7.18,0,0,0-1-1.84,10.16,10.16,0,0,1-1-1.76l.05-.33Z"/><path class="cls-6" d="M8.05,402.57h0c.15,0,.31.21.48.56a2.22,2.22,0,0,1-.57.5c-.26-.16-.38-.31-.36-.44A1.6,1.6,0,0,1,8.05,402.57Zm4.33,1.23,1.08.24a1,1,0,0,1,.08.52,1.9,1.9,0,0,1-.67,0c-1.46-.23-2.21-.53-2.24-.9a.35.35,0,0,1,.33-.17h-.09l.16,0C11.3,403.55,11.76,403.65,12.38,403.8Z"/><path class="cls-6" d="M10.8,396.08a5.52,5.52,0,0,0,.09,2.35.44.44,0,0,0,.25.32l1,.25a4.88,4.88,0,0,0,.55.12l.39,0,.38,0a1.23,1.23,0,0,1,.72.35,1.59,1.59,0,0,1-.13.24,3.85,3.85,0,0,1-1.4,0q-.19,0-.75-.18t-.75-.18a.3.3,0,0,0-.28.08,6.68,6.68,0,0,1,0,.76v.68c0,.06,0,.18,0,.36a1.07,1.07,0,0,0,.14.31c0,.05.1.08.22.1h0l0,.26c0,.06-.11.16-.3.32s-.3.24-.35.23c-.24,0-.35-.49-.33-1.36a7.79,7.79,0,0,0-.09-1.91,6.79,6.79,0,0,0-2.23-.74c-.7-.18-1.6-.47-2.69-.86l-.43-.16a1.46,1.46,0,0,1-.19-.45h.73l.59.21,1.45.47a6.05,6.05,0,0,0,.7.21l2.05.42.34-2.34Z"/><path class="cls-6" d="M11.78,389.79a5.35,5.35,0,0,0,.09,2.35.44.44,0,0,0,.25.33l1,.25a4.88,4.88,0,0,0,.55.12l.39,0,.38,0a1.17,1.17,0,0,1,.72.35,1.59,1.59,0,0,1-.13.24,3.85,3.85,0,0,1-1.4,0q-.19,0-.75-.18t-.75-.18a.3.3,0,0,0-.28.08,5.52,5.52,0,0,1,0,.76c0,.07,0,.3,0,.68,0,.06,0,.18,0,.36a1.2,1.2,0,0,0,.14.31c0,.05.1.08.22.1h0l0,.26c0,.06-.11.16-.3.32s-.3.24-.35.23c-.24,0-.35-.49-.33-1.36a7.94,7.94,0,0,0-.09-1.92,7.41,7.41,0,0,0-2.23-.74c-.7-.18-1.6-.46-2.69-.85l-.43-.17a1.06,1.06,0,0,1-.19-.44h.73l.59.21,1.45.47a6.05,6.05,0,0,0,.7.21l2.05.42.34-2.35Z"/><path class="cls-6" d="M16.3,384.5a.68.68,0,0,1,.17.59l-.32,2.05a6.89,6.89,0,0,1-.46,1.56c-.3.73-.61,1.13-.9,1.18a2.74,2.74,0,0,1-.94,0,1.5,1.5,0,0,1-1.22-1,2.88,2.88,0,0,1-.17-1.62,2.1,2.1,0,0,1,.54-1.2,1.06,1.06,0,0,1,1-.31c.22,0,.4.44.54,1.22a4.24,4.24,0,0,1,.12,1.39.29.29,0,0,1,0,.09c.06,0,.12.06.18.16a1.54,1.54,0,0,0,.37-.64,3.5,3.5,0,0,0,.26-.75l.29-1.84.21-.68A.85.85,0,0,1,16.3,384.5Zm-2.68,2a1.44,1.44,0,0,0-.49,1,2.25,2.25,0,0,0,0,1q.16.58.6.66a.24.24,0,0,0,.24-.07l.06-.37a5.09,5.09,0,0,0-.17-1.12A4.64,4.64,0,0,0,13.62,386.52Z"/><path class="cls-6" d="M14.48,378.5l.14.21a3.69,3.69,0,0,0-.34.92v0c0,.3-.06.51-.08.64l-.07.47a3.69,3.69,0,0,0,.06.42,6.75,6.75,0,0,0,0,.76,1.54,1.54,0,0,0,1.06,1.11,3.38,3.38,0,0,0,.6.16l.13,0c.44,0,.69.06.77.07a3.12,3.12,0,0,1,0,.44,1.34,1.34,0,0,1-.46.09l-.32-.08-.36-.07A6,6,0,0,1,14,383a1.28,1.28,0,0,1-.42-.5,4.19,4.19,0,0,1-.07-2.24c.17-1.07.41-1.67.72-1.81Z"/><path class="cls-6" d="M17.14,376.52q.18,0,.39.42a1,1,0,0,1,.18.58,1.66,1.66,0,0,1-.31.59,4.68,4.68,0,0,1-.63-.32,1.5,1.5,0,0,1-.24-.42,1,1,0,0,1-.12-.42.47.47,0,0,1,.28-.32A.72.72,0,0,1,17.14,376.52Z"/><path class="cls-6" d="M18,370.2a2.26,2.26,0,0,1,.17.74c0,.39,0,1,0,1.7,0,.48,0,.78,0,.87a4,4,0,0,1-.52,1.41c-.34.57-.72.83-1.12.77s-.82-.47-1.08-1.18a6.44,6.44,0,0,1-.5-1.93l.19-.73h0c0,.05,0,.09.13.11a.49.49,0,0,1,.19.07,10.4,10.4,0,0,0,.41,1.55c.27.82.51,1.24.71,1.27.37.06.69-.38.94-1.3l.08-.32v-3l.1-.09Z"/><path class="cls-6" d="M17.8,363a2.07,2.07,0,0,1,1,.43,3.14,3.14,0,0,1,.53,1.8,8.24,8.24,0,0,1,0,2,3.5,3.5,0,0,1-.62,1.5c-.41.57-.84.82-1.3.75a.9.9,0,0,1-.57-.45,9.43,9.43,0,0,0-.7-1.07,3.11,3.11,0,0,1-.59-1.66,6.75,6.75,0,0,1,0-1.8,1.86,1.86,0,0,1,.3-.63,2.08,2.08,0,0,1,.46-.54,2.4,2.4,0,0,1,.7-.26A2.21,2.21,0,0,1,17.8,363Zm-.13.58a1.1,1.1,0,0,0-.9.39,1.58,1.58,0,0,0-.51.88c0,.06,0,.52,0,1.39a2.15,2.15,0,0,0,.24.94c.5,1,.88,1.54,1.12,1.58s.44-.19.69-.66a3.35,3.35,0,0,0,.38-1,8.39,8.39,0,0,0,0-1.71,2.78,2.78,0,0,0-.45-1.5A.92.92,0,0,0,17.67,363.6Z"/><path class="cls-6" d="M19.29,353.49c.11,0,.48.08,1.09.21l1.09.21a.54.54,0,0,0,.1.35,1.26,1.26,0,0,1-1.12.26l-.53-.12-.54-.12a1.13,1.13,0,0,0-.56,0l0,.2a8.82,8.82,0,0,0,.75,2.12l.78,1.86a1.38,1.38,0,0,1-.43.64h-.12l-.48-.13-.48-.13a1,1,0,0,0-.62.07l0,.2A13.08,13.08,0,0,0,19.83,362l0,.33a.74.74,0,0,1-.36.1c-.11,0-.28-.3-.52-.85,0-.08-.36-.58-1-1.5a2.66,2.66,0,0,1-.6-1.55c.05-.36.5-.48,1.34-.35l.34.07.34.07a1.34,1.34,0,0,1,.1-.21v0a18.44,18.44,0,0,0-.82-2.17,3.84,3.84,0,0,1-.26-.51,4.94,4.94,0,0,1-.24-1.57C18.19,353.5,18.57,353.37,19.29,353.49Z"/><path class="cls-6" d="M12.34,343.24a8.13,8.13,0,0,1,2.11,1.95c.09.11.28.3.57.59l1,.88c.4.48.88,1,1.44,1.56.19.2,1.5,1.32,3.91,3.35l1.26,1.09a.5.5,0,0,1,.17.48,1.08,1.08,0,0,1-.16.39l-.07,0a.23.23,0,0,1-.14,0,1.26,1.26,0,0,1-.35-.21,3,3,0,0,0-.37-.23,6,6,0,0,0-1.25-1.38c-.34-.3-.82-.7-1.43-1.21-.2-.13-.49-.34-.88-.64,0,0-.41-.43-1.15-1.24a2.94,2.94,0,0,0-1.26-1,7.36,7.36,0,0,0-1.16-1.38,11.29,11.29,0,0,0-1.39-1.2.22.22,0,0,0-.08.15v.05a3.51,3.51,0,0,1-.44-.6q-.26-.39-.78-1.29A.42.42,0,0,1,12.34,343.24Z"/><path class="cls-6" d="M21.76,337.66a2.15,2.15,0,0,1,1,.43,3.09,3.09,0,0,1,.52,1.81,7.69,7.69,0,0,1,0,2,3.49,3.49,0,0,1-.61,1.5c-.41.58-.84.83-1.3.75a.85.85,0,0,1-.57-.45,9.91,9.91,0,0,0-.71-1.07,3.08,3.08,0,0,1-.58-1.66,6.28,6.28,0,0,1,0-1.79,1.93,1.93,0,0,1,.29-.64,2.07,2.07,0,0,1,.47-.54,2.59,2.59,0,0,1,.7-.26A2.21,2.21,0,0,1,21.76,337.66Zm-.14.59a1.05,1.05,0,0,0-.89.38,1.57,1.57,0,0,0-.52.89c0,.05,0,.52,0,1.38a2.56,2.56,0,0,0,.24,1c.51,1,.88,1.54,1.13,1.57s.44-.18.68-.65a3.57,3.57,0,0,0,.39-1,8.5,8.5,0,0,0,0-1.71,2.7,2.7,0,0,0-.44-1.5A.94.94,0,0,0,21.62,338.25Z"/><path class="cls-6" d="M22.88,330.47a2,2,0,0,1,1,.42,3.18,3.18,0,0,1,.53,1.81,8.78,8.78,0,0,1,0,2,3.61,3.61,0,0,1-.62,1.5c-.41.57-.84.82-1.3.75a.9.9,0,0,1-.57-.45,10.28,10.28,0,0,0-.7-1.08,3,3,0,0,1-.59-1.65,6.74,6.74,0,0,1,0-1.8,1.7,1.7,0,0,1,.3-.63,2.37,2.37,0,0,1,.46-.55,2.8,2.8,0,0,1,.7-.25A1.76,1.76,0,0,1,22.88,330.47Zm-.13.58a1.1,1.1,0,0,0-.9.39,1.58,1.58,0,0,0-.51.88c0,.06,0,.52,0,1.39a2.32,2.32,0,0,0,.23.94c.51,1,.89,1.54,1.13,1.58s.44-.19.69-.66a3.45,3.45,0,0,0,.38-1,8.39,8.39,0,0,0,0-1.71,2.84,2.84,0,0,0-.45-1.51A1,1,0,0,0,22.75,331.05Z"/><path class="cls-6" d="M23.41,323.84q.6.09,1.2,1.35a9.08,9.08,0,0,1,.67,1.8,3,3,0,0,1,.14.87l0,.24-.2.13a1,1,0,0,1-.41-.38c0-.16-.09-.39-.16-.67-.35-1.64-.82-2.51-1.39-2.6-.37-.05-.64.45-.81,1.53a9.38,9.38,0,0,0-.11,1.59,2.17,2.17,0,0,0,.33,1.44q.3.12.81.39a1.83,1.83,0,0,1-.91.21.87.87,0,0,1-.56-.29,3.61,3.61,0,0,1-.32-1.62,8.63,8.63,0,0,1,0-1.74C21.91,324.45,22.5,323.7,23.41,323.84Zm.42,4a2.72,2.72,0,0,1,.5.3c.33.23.52.36.58.39a25,25,0,0,0,5.58,2,2.82,2.82,0,0,0,0,.34h0a.37.37,0,0,1-.18.25.43.43,0,0,1-.29.09,23,23,0,0,1-5.26-2,5.45,5.45,0,0,1-1-.61,1.34,1.34,0,0,1-.31-.6A.38.38,0,0,1,23.83,327.8Z"/><path class="cls-6" d="M25.3,319.71a.66.66,0,0,1,.6.42c.05.17.12.57.22,1.22a7.06,7.06,0,0,1,.11,1.21.2.2,0,0,1-.05.09l-.06.08c0,.09.09.27.3.55-.16.15-.27.22-.34.21-.43-.07-.67-.77-.73-2.12a4,4,0,0,1,0-.46,1.65,1.65,0,0,0-.21-.32,1.15,1.15,0,0,0-.55.5l-.74,1.32c-.37.63-.71.92-1,.87s-.56-.52-.43-1.36a9.2,9.2,0,0,1,.3-1.22,3.91,3.91,0,0,1,.47-1.1l.14.12L23,321.88a.93.93,0,0,1,.1.16l.93-1.44C24.49,319.94,24.9,319.65,25.3,319.71Z"/><path class="cls-6" d="M26.82,313.68a2.06,2.06,0,0,1,.18.75c0,.39,0,.95,0,1.69,0,.49,0,.78,0,.88a4,4,0,0,1-.52,1.4c-.35.58-.72.84-1.13.77s-.81-.46-1.07-1.18a6,6,0,0,1-.5-1.93l.19-.72h0c0,.05,0,.09.13.11l.19.07a10.17,10.17,0,0,0,.41,1.56c.27.81.5,1.23.71,1.26.37.06.68-.37.94-1.3,0-.16.06-.27.07-.32h0v-3l.1-.09Z"/><path class="cls-6" d="M26.62,306.51a2,2,0,0,1,1,.42,3.15,3.15,0,0,1,.53,1.81,8.78,8.78,0,0,1,0,2,3.65,3.65,0,0,1-.62,1.49c-.41.58-.84.83-1.3.76a.94.94,0,0,1-.57-.45,8.53,8.53,0,0,0-.7-1.08,3,3,0,0,1-.59-1.66,6.28,6.28,0,0,1,0-1.79,1.82,1.82,0,0,1,.29-.63,2.18,2.18,0,0,1,.47-.55,2.59,2.59,0,0,1,.7-.26A1.9,1.9,0,0,1,26.62,306.51Zm-.14.58a1,1,0,0,0-.89.39,1.47,1.47,0,0,0-.51.88c0,.06,0,.52,0,1.39a2.56,2.56,0,0,0,.24.94c.51,1,.89,1.54,1.13,1.58s.44-.19.69-.66a3.45,3.45,0,0,0,.38-1,8.47,8.47,0,0,0,0-1.72,2.81,2.81,0,0,0-.45-1.5A1,1,0,0,0,26.48,307.09Z"/><path class="cls-6" d="M22.43,294.69h0l.3.14a3.59,3.59,0,0,0-1.78,4.1,2.67,2.67,0,0,0,.62,1.25,6.57,6.57,0,0,0,1.51,1,5.5,5.5,0,0,0,1.66.69,7.76,7.76,0,0,0,.78,0l.76,0a.77.77,0,0,0,.26-.35,1.59,1.59,0,0,0,0-.29.93.93,0,0,1,0-.25c0-.3.1-.95.25-2,.11-.66.22-1.29.36-1.87,0,0,0,.12.11.27h.17l-.21,2.17a4.13,4.13,0,0,0,.22,2.09,7.58,7.58,0,0,0,1.73-.49l.32.05a.23.23,0,0,1,.07.23c0,.11-.41.32-1.17.64s-1.15.54-1.17.64a5.76,5.76,0,0,0,0,1,7.94,7.94,0,0,0,.13.8,3.1,3.1,0,0,1,.11.69,1,1,0,0,1-.5.64h0a.39.39,0,0,1-.34-.3,10.18,10.18,0,0,1-.08-2.75.54.54,0,0,0-.14-.2,11.44,11.44,0,0,1-1.35-.13A6.69,6.69,0,0,1,21.38,301a3.73,3.73,0,0,1-1.21-3.55,4.8,4.8,0,0,1,.72-1.83C21.36,294.92,21.87,294.6,22.43,294.69Z"/><path class="cls-6" d="M23.81,285.84h0a1.34,1.34,0,0,0,.3.14,3.6,3.6,0,0,0-1.78,4.1,2.67,2.67,0,0,0,.62,1.25,6.88,6.88,0,0,0,1.51,1,5.68,5.68,0,0,0,1.66.68,7,7,0,0,0,.78.05l.76,0a.74.74,0,0,0,.26-.36,1.6,1.6,0,0,0,0-.29,1.88,1.88,0,0,1,0-.24c0-.3.1-1,.25-2,.11-.66.22-1.28.36-1.87,0,0,0,.13.11.27h.17l-.21,2.17a4.31,4.31,0,0,0,.22,2.1,7.71,7.71,0,0,0,1.73-.5l.32.05a.24.24,0,0,1,.07.24q0,.15-1.17.63c-.77.33-1.15.54-1.17.64a5.76,5.76,0,0,0,0,1,7.94,7.94,0,0,0,.13.8,3.23,3.23,0,0,1,.11.7,1.08,1.08,0,0,1-.5.64h0a.35.35,0,0,1-.33-.3,9.63,9.63,0,0,1-.09-2.75.78.78,0,0,0-.14-.2,11.44,11.44,0,0,1-1.35-.13,6.68,6.68,0,0,1-3.59-1.57,3.71,3.71,0,0,1-1.2-3.55,4.73,4.73,0,0,1,.71-1.84C22.74,286.07,23.25,285.76,23.81,285.84Z"/><path class="cls-6" d="M32.18,282.71a.69.69,0,0,1,.17.6L32,285.36a6.82,6.82,0,0,1-.46,1.55c-.3.74-.6,1.13-.9,1.19a3,3,0,0,1-.94,0,1.51,1.51,0,0,1-1.22-1,2.83,2.83,0,0,1-.17-1.61,2.13,2.13,0,0,1,.54-1.2,1.09,1.09,0,0,1,1-.32c.22,0,.4.44.54,1.23a4.19,4.19,0,0,1,.12,1.38.3.3,0,0,1,0,.1.3.3,0,0,1,.18.15c.08,0,.21-.24.37-.63a3.36,3.36,0,0,0,.26-.76l.29-1.84.21-.68A1.06,1.06,0,0,1,32.18,282.71Zm-2.68,2a1.42,1.42,0,0,0-.49,1,2.2,2.2,0,0,0,0,1c.11.4.31.62.6.67a.26.26,0,0,0,.24-.07l.06-.37a5,5,0,0,0-.17-1.12A4.46,4.46,0,0,0,29.5,284.74Z"/><path class="cls-6" d="M33.14,276.62a.7.7,0,0,1,.16.59L33,279.26a6.28,6.28,0,0,1-.46,1.56c-.3.73-.6,1.13-.9,1.18a2.5,2.5,0,0,1-.94,0,1.5,1.5,0,0,1-1.22-1,2.88,2.88,0,0,1-.17-1.62,2.16,2.16,0,0,1,.54-1.19,1.07,1.07,0,0,1,1-.32c.22,0,.4.44.54,1.22a4.64,4.64,0,0,1,.13,1.39l0,.09c.06,0,.12.06.18.16s.21-.25.37-.64a3.5,3.5,0,0,0,.26-.75l.29-1.84s.08-.23.21-.68A1,1,0,0,1,33.14,276.62Zm-2.69,2a1.5,1.5,0,0,0-.49,1,2.42,2.42,0,0,0,.05,1c.11.39.32.62.61.66a.23.23,0,0,0,.23-.07l.06-.37a5.48,5.48,0,0,0-.16-1.12A4.41,4.41,0,0,0,30.45,278.64Z"/></svg>