<svg width="288" height="120" viewBox="0 0 288 120" fill="none" xmlns="http://www.w3.org/2000/svg">
<rect width="288" height="120" fill="#2B2D31"/>
<g clip-path="url(#clip0_426_368)">
<path d="M73 97C93.4345 97 110 80.4345 110 60C110 39.5655 93.4345 23 73 23C52.5655 23 36 39.5655 36 60C36 80.4345 52.5655 97 73 97Z" fill="#E9E9E9"/>
<mask id="mask0_426_368" style="mask-type:luminance" maskUnits="userSpaceOnUse" x="-29" y="-45" width="144" height="144">
<path d="M-28.5533 -44.7312H114.559V98.3812H-28.5533V-44.7312Z" fill="white"/>
</mask>
<g mask="url(#mask0_426_368)">
<path d="M92.4387 78.2583C78.1774 79.4511 69.2008 52.5688 80.1789 43.4714C80.9423 42.8387 82.0779 42.9589 82.6928 43.7364C84.1597 45.591 85.1263 47.2035 85.1391 47.2246C85.1816 47.2955 89.3882 54.3286 89.6604 56.6426C89.8483 58.2406 91.3118 59.8121 92.6028 61.1989C95.513 63.9405 94.6449 64.9003 92.17 66.3914C92.17 66.3914 92.7695 68.7706 93.273 71.4209C90.1204 72.2185 88.1145 70.3247 88.0252 70.2386C87.856 70.0734 87.5846 70.0761 87.4188 70.2454C87.2528 70.4147 87.2555 70.6866 87.425 70.8525C87.5083 70.9341 89.1202 72.4771 91.7398 72.4771C92.2635 72.4771 92.8285 72.4139 93.4286 72.2665C93.7061 73.8328 93.9263 75.4158 93.9505 76.5962C93.9684 77.463 93.3028 78.186 92.4387 78.2583ZM93.7237 66.8177C99.5425 63.3852 91.7809 60.319 91.0854 56.5423C90.792 54.0464 86.625 47.0784 86.4485 46.7841C86.3876 46.6817 85.0117 44.3856 82.9938 42.0617L82.9994 42.0593C82.8616 41.9066 82.5328 41.5427 82.3989 41.3942L82.3963 41.3954C76.948 34.4824 68.5603 37.3672 60.6929 41.337C61.4043 43.9957 63.0173 49.9296 64.2189 53.645C64.448 54.3531 65.1049 54.8193 65.8489 54.8394C72.9882 55.0323 77.4549 68.1508 70.3098 71.294C62.985 74.582 56.1468 61.786 61.411 56.5879C61.8687 56.1361 62.018 55.4579 61.8192 54.8462C60.663 51.2889 59.1132 45.6254 58.3514 42.7913C45.9098 51.8214 48.6413 68.8687 59.4866 77.5413C64.0523 81.0424 81.2026 82.6729 83.4833 82.7815C87.1139 82.7639 94.1156 82.4377 94.9762 78.485L94.9829 78.4828C95.0084 78.3079 95.0937 77.7219 95.1204 77.5374L95.09 77.5472C95.3154 74.1273 94.0458 68.2411 93.7237 66.8177ZM86.3658 54.5888C85.9723 54.5888 85.6503 54.9108 85.6503 55.3043V60.3133C85.6503 60.7068 85.9723 61.0288 86.3658 61.0288C86.7594 61.0288 87.0814 60.7068 87.0814 60.3133V55.3043C87.0814 54.9108 86.7594 54.5888 86.3658 54.5888Z" fill="#626262"/>
</g>
</g>
<circle cx="96" cy="83" r="14" fill="#23A55A" stroke="#2B2D31" stroke-width="6"/>
<path d="M145.628 76.968L157.184 44.64H161.972L150.416 76.968H145.628ZM166.71 53.424H172.038V56.808H172.29C172.746 55.704 173.406 54.792 174.27 54.072C175.134 53.352 176.31 52.992 177.798 52.992C178.83 52.992 179.766 53.184 180.606 53.568C181.47 53.952 182.202 54.54 182.802 55.332C183.426 56.124 183.906 57.132 184.242 58.356C184.602 59.58 184.782 61.032 184.782 62.712C184.782 64.392 184.602 65.844 184.242 67.068C183.906 68.292 183.426 69.3 182.802 70.092C182.202 70.884 181.47 71.472 180.606 71.856C179.766 72.24 178.83 72.432 177.798 72.432C176.31 72.432 175.134 72.084 174.27 71.388C173.406 70.668 172.746 69.744 172.29 68.616H172.038V79.2H166.71V53.424ZM175.494 68.292C176.694 68.292 177.618 67.932 178.266 67.212C178.914 66.468 179.238 65.448 179.238 64.152V61.272C179.238 59.976 178.914 58.968 178.266 58.248C177.618 57.504 176.694 57.132 175.494 57.132C174.558 57.132 173.742 57.36 173.046 57.816C172.374 58.272 172.038 58.992 172.038 59.976V65.448C172.038 66.432 172.374 67.152 173.046 67.608C173.742 68.064 174.558 68.292 175.494 68.292ZM188.62 67.86H194.308V49.5H188.62V45.36H199.636V67.86H205.324V72H188.62V67.86ZM225.29 72C224.186 72 223.298 71.724 222.626 71.172C221.954 70.596 221.558 69.78 221.438 68.724H221.258C220.922 69.948 220.25 70.872 219.242 71.496C218.258 72.12 217.046 72.432 215.606 72.432C213.806 72.432 212.354 71.952 211.25 70.992C210.17 70.008 209.63 68.64 209.63 66.888C209.63 64.944 210.338 63.504 211.754 62.568C213.17 61.632 215.246 61.164 217.982 61.164H220.97V60.228C220.97 59.124 220.706 58.296 220.178 57.744C219.674 57.168 218.81 56.88 217.586 56.88C216.458 56.88 215.546 57.096 214.85 57.528C214.154 57.96 213.554 58.524 213.05 59.22L210.134 56.628C210.758 55.572 211.73 54.708 213.05 54.036C214.394 53.34 216.11 52.992 218.198 52.992C220.742 52.992 222.722 53.58 224.138 54.756C225.578 55.908 226.298 57.66 226.298 60.012V68.148H228.35V72H225.29ZM217.622 68.94C218.558 68.94 219.35 68.712 219.998 68.256C220.646 67.8 220.97 67.14 220.97 66.276V64.044H218.126C215.942 64.044 214.85 64.776 214.85 66.24V66.96C214.85 67.608 215.102 68.1 215.606 68.436C216.11 68.772 216.782 68.94 217.622 68.94ZM244.824 53.424H250.26L241.512 74.988C240.96 76.356 240.228 77.4 239.316 78.12C238.404 78.84 237.156 79.2 235.572 79.2H231.9V75.06H236.364L237.516 71.892L230.028 53.424H235.752L238.452 61.236L240.144 66.636H240.432L242.052 61.236L244.824 53.424Z" fill="white"/>
<defs>
<clipPath id="clip0_426_368">
<rect width="74" height="74" fill="white" transform="translate(36 23)"/>
</clipPath>
</defs>
</svg>
